<?xml version="1.0" standalone="no"?>
<!DOCTYPE svg PUBLIC "-//W3C//DTD SVG 20010904//EN"
 "http://www.w3.org/TR/2001/REC-SVG-20010904/DTD/svg10.dtd">
<svg version="1.0" xmlns="http://www.w3.org/2000/svg"
 width="784.000000pt" height="784.000000pt" viewBox="0 0 784.000000 784.000000"
 preserveAspectRatio="xMidYMid meet">
<metadata>
Created by potrace 1.14, written by Peter Selinger 2001-2017
</metadata>
<g transform="translate(0.000000,784.000000) scale(0.100000,-0.100000)"
fill="#000000" stroke="none">
<path d="M5426 7675 c23 -17 47 -19 42 -4 -2 7 -17 13 -32 15 -26 3 -27 2 -10
-11z"/>
<path d="M5676 7515 c-11 -8 -16 -15 -12 -15 4 0 -1 -16 -12 -34 l-21 -35 37
-40 c20 -21 66 -54 102 -73 36 -18 76 -45 90 -59 14 -14 48 -41 75 -59 28 -19
52 -37 55 -40 3 -4 10 -9 17 -11 6 -2 48 -39 92 -81 75 -72 137 -116 147 -105
6 5 -34 109 -47 122 -12 12 -12 45 1 45 6 0 4 13 -5 30 -20 38 -19 62 3 91 41
53 36 62 -34 75 -15 3 -39 11 -55 19 -15 8 -48 17 -74 19 -25 3 -58 14 -73 24
-32 22 -59 34 -91 39 -38 6 -81 32 -81 49 0 8 6 14 13 13 46 -6 50 15 6 30
-44 15 -110 13 -133 -4z"/>
<path d="M4311 7302 c-6 -2 -11 -16 -11 -30 0 -15 -12 -45 -25 -67 -14 -22
-25 -47 -25 -56 0 -9 -6 -19 -12 -21 -16 -5 -97 -2 -193 6 -51 4 -77 2 -97 -8
-27 -14 -125 -15 -147 -2 -6 4 -11 3 -11 -2 0 -6 -8 -8 -18 -5 -11 2 -35 -2
-55 -10 -19 -9 -69 -21 -111 -27 -89 -15 -112 -33 -77 -61 16 -14 19 -20 10
-23 -24 -8 -121 -29 -148 -32 -134 -17 -180 -24 -206 -32 -48 -15 -96 -48
-116 -81 -10 -17 -34 -41 -54 -53 -24 -16 -37 -33 -41 -55 -9 -49 -36 -66
-102 -68 -33 -1 -73 -10 -92 -20 -19 -10 -55 -19 -80 -20 -59 -3 -116 -20
-165 -48 -49 -28 -72 -24 -80 13 -10 45 -24 51 -82 31 -28 -10 -58 -22 -65
-28 -19 -15 -131 -66 -215 -97 -40 -15 -89 -39 -110 -53 -21 -14 -60 -34 -88
-43 -45 -16 -122 -55 -135 -70 -3 -3 -25 -16 -50 -29 -25 -14 -53 -35 -63 -48
-10 -12 -21 -22 -25 -21 -21 4 -62 -17 -81 -43 -12 -16 -28 -29 -35 -29 -7 0
-19 -7 -26 -15 -7 -8 -41 -28 -76 -45 -35 -16 -79 -44 -97 -61 -17 -18 -49
-39 -69 -48 -44 -20 -171 -134 -363 -327 -199 -199 -266 -279 -301 -356 -10
-24 -22 -47 -26 -53 -67 -89 -109 -141 -129 -163 -18 -19 -79 -110 -79 -118 0
-2 -11 -22 -25 -44 -14 -22 -22 -40 -19 -40 4 0 2 -6 -4 -12 -10 -13 -23 -54
-47 -148 -23 -88 -81 -260 -108 -322 -15 -31 -33 -85 -42 -120 -9 -35 -21 -68
-26 -74 -5 -6 -8 -26 -7 -45 0 -19 -4 -50 -10 -69 -30 -94 -42 -215 -47 -465
-4 -162 -2 -210 11 -255 19 -66 21 -73 34 -169 6 -42 17 -105 25 -141 19 -83
21 -90 35 -180 7 -41 20 -95 30 -120 10 -25 21 -63 25 -85 4 -22 23 -72 42
-112 54 -109 80 -108 68 4 -7 63 -6 64 14 53 12 -6 21 -15 21 -20 0 -6 5 -10
11 -10 6 0 24 -9 39 -20 16 -11 35 -17 44 -14 14 5 22 42 17 81 -1 7 10 40 24
74 15 35 25 76 23 95 -4 48 6 50 37 7 31 -41 85 -97 125 -128 27 -22 79 -115
86 -155 7 -35 61 -146 94 -192 16 -22 26 -46 24 -53 -6 -14 21 -63 31 -57 15
7 50 -30 76 -80 16 -32 30 -61 30 -65 2 -10 3 -15 28 -83 50 -143 81 -220 110
-277 17 -35 29 -63 26 -63 -3 0 -1 -8 4 -18 6 -11 12 -30 15 -44 2 -13 21 -60
41 -104 20 -43 40 -88 45 -99 5 -11 29 -63 53 -115 24 -52 49 -111 56 -131 17
-53 189 -259 217 -259 16 0 19 -16 4 -25 -19 -12 -10 -35 13 -35 12 0 28 -4
35 -9 20 -12 130 -114 262 -244 66 -64 124 -117 128 -117 5 0 17 9 26 19 21
23 16 47 -20 87 -14 16 -61 75 -105 132 -85 111 -84 110 -129 162 -17 19 -38
47 -47 63 -10 15 -21 27 -25 27 -4 0 -8 6 -8 14 0 7 -7 19 -16 27 -23 19 -43
63 -49 106 -5 37 -26 63 -52 63 -7 0 -14 7 -14 15 -3 37 -23 77 -53 104 -14
14 -26 30 -26 37 0 7 -11 24 -25 38 -13 13 -27 37 -31 53 -3 15 -13 38 -21 51
-12 20 -12 23 2 28 21 9 56 -17 107 -78 46 -56 138 -150 179 -182 54 -44 205
-174 247 -213 25 -24 48 -43 52 -43 4 0 26 -18 49 -40 23 -22 46 -40 50 -40 5
0 31 -23 58 -51 105 -111 150 -151 203 -177 30 -14 59 -27 65 -28 6 -1 73 -31
149 -68 75 -36 161 -73 189 -82 29 -9 81 -29 117 -45 35 -15 68 -25 73 -20 4
4 25 0 45 -10 20 -11 46 -19 58 -19 12 0 51 -13 86 -30 88 -41 205 -68 320
-73 70 -3 105 -10 124 -22 14 -9 40 -19 57 -21 18 -3 46 -7 62 -9 17 -3 46 -7
66 -10 20 -2 63 -13 95 -23 108 -36 152 -40 259 -26 104 14 392 8 560 -12 71
-8 172 -8 230 2 82 12 98 11 101 -10 5 -33 22 -41 44 -21 10 10 22 25 25 34 7
24 42 42 92 48 24 2 83 17 131 32 76 25 90 26 108 14 15 -9 36 -11 70 -7 27 4
60 7 74 8 14 0 39 10 55 22 33 23 58 33 95 40 41 8 73 33 64 52 -4 9 -7 37 -7
61 0 35 5 49 24 65 21 19 36 21 108 19 l83 -2 55 52 c51 48 86 105 81 131 -6
33 15 73 50 95 20 13 49 32 64 43 15 10 30 18 33 18 3 0 27 10 53 21 35 16 59
20 102 17 72 -7 77 -4 72 36 -2 18 4 55 13 82 9 27 19 76 22 109 2 33 9 73 15
88 11 27 20 137 11 137 -2 0 -14 -7 -28 -16 -22 -15 -24 -14 -46 15 -40 55
-108 61 -95 8 4 -18 -28 -47 -53 -47 -25 0 -76 -47 -96 -89 -11 -22 -23 -41
-26 -41 -4 0 -10 -12 -13 -26 -5 -18 -10 -23 -19 -16 -7 5 -29 9 -50 8 -32 -2
-45 -10 -73 -42 -18 -21 -33 -44 -34 -51 0 -6 -4 -13 -8 -15 -4 -1 -18 -17
-30 -35 -13 -19 -29 -30 -40 -28 -9 2 -20 4 -23 4 -10 1 -3 95 9 117 13 26 -1
60 -30 68 -13 3 -36 24 -52 46 -27 36 -35 41 -63 40 -8 -1 -7 -46 2 -87 3 -13
11 -22 17 -20 15 3 17 -19 5 -56 -17 -51 -165 -141 -274 -166 -29 -7 -62 -22
-75 -32 -14 -13 -30 -18 -44 -15 -36 9 -59 -20 -55 -71 3 -35 -17 -36 -39 -1
-11 18 -21 36 -22 40 -5 14 -53 16 -78 3 -34 -16 -99 -19 -133 -6 -35 14 -64
0 -77 -35 -5 -13 -22 -30 -37 -36 -16 -7 -50 -34 -77 -60 -42 -41 -50 -45 -63
-33 -19 20 -46 19 -91 -4 -26 -13 -44 -16 -59 -10 -21 8 -19 11 37 71 59 63
70 83 49 90 -11 4 44 67 59 69 73 8 171 46 210 82 24 22 30 63 10 70 -8 2 2
13 21 25 19 12 38 19 43 16 4 -3 8 -1 8 4 0 5 8 12 18 15 9 2 25 8 35 12 12 5
17 2 17 -9 0 -9 5 -16 10 -16 10 0 22 11 78 74 9 10 44 31 77 47 33 16 89 47
123 68 l64 40 24 -27 c23 -27 35 -14 15 16 -6 10 11 24 67 54 42 22 97 58 122
81 26 23 72 55 102 70 31 16 78 49 105 73 26 25 67 59 90 77 23 18 49 48 57
67 9 19 21 42 28 50 16 19 131 83 169 94 10 2 19 20 24 43 13 73 94 144 146
128 11 -4 30 2 47 14 16 11 41 23 58 27 36 9 45 22 31 46 -9 14 -9 23 1 38 7
11 8 20 3 20 -10 0 10 84 28 119 16 28 35 22 36 -11 0 -17 14 -37 45 -63 25
-20 53 -50 63 -66 23 -35 27 -35 72 -5 22 16 45 23 60 20 14 -2 38 2 55 11 37
19 31 20 75 -15 20 -16 41 -27 46 -24 5 3 22 -4 38 -16 16 -11 32 -16 35 -11
3 5 22 16 41 26 33 15 38 15 60 1 31 -20 38 -20 52 3 13 21 0 56 -45 118 -26
37 -28 63 -6 104 8 17 14 32 12 34 -2 1 -17 10 -35 19 -24 12 -32 13 -36 3 -5
-15 -53 8 -62 31 -8 22 -2 23 29 7 25 -13 29 -13 49 6 34 32 109 79 136 86 13
3 32 1 42 -6 24 -14 35 -14 37 2 2 28 9 45 26 72 16 24 17 34 8 57 -6 16 -9
39 -6 51 10 49 26 123 28 134 1 7 5 15 9 19 3 4 3 14 -1 23 -9 19 -8 70 2 124
6 31 4 41 -10 51 -14 11 -15 16 -4 37 7 13 19 29 25 34 19 16 24 53 9 66 -7 6
-16 25 -19 43 -11 59 -13 71 -14 79 -1 4 -21 7 -46 7 -60 0 -72 22 -45 85 5
11 11 32 14 47 3 15 12 33 19 40 26 26 79 123 81 145 0 13 5 23 10 23 5 0 2 7
-5 16 -9 11 -13 36 -11 73 3 46 0 60 -16 74 -17 16 -19 24 -10 54 5 19 11 43
13 52 2 9 6 23 9 31 12 32 -93 81 -115 54 -25 -31 -35 -8 -15 38 4 9 8 22 10
30 1 7 4 18 7 23 4 6 12 35 19 65 27 119 62 210 81 210 18 0 38 26 29 39 -15
25 1 50 36 57 25 4 34 12 34 25 0 20 -19 59 -33 70 -14 10 -18 64 -7 93 9 24
6 31 -25 62 l-35 35 5 77 c3 42 7 97 8 121 2 25 -2 60 -8 79 -19 55 -10 72 41
73 75 2 71 0 66 39 -1 6 -17 10 -35 10 -18 0 -42 7 -53 16 -18 15 -19 22 -11
53 8 30 6 45 -13 86 -27 58 -30 74 -17 106 5 13 10 57 12 97 2 62 0 74 -15 82
-15 8 -29 31 -35 60 -1 3 -7 24 -14 47 -9 27 -11 54 -5 80 4 21 6 56 5 78 -3
33 1 43 24 61 l27 21 -36 28 c-20 15 -36 33 -36 39 0 30 -84 146 -106 146 -8
0 -18 -8 -23 -18 -6 -12 -32 -22 -78 -31 -37 -8 -86 -21 -107 -29 l-40 -16
-39 45 c-21 24 -45 58 -53 74 -18 39 -33 58 -65 79 -18 11 -31 32 -38 61 -6
24 -18 51 -27 59 -11 11 -12 21 -6 33 13 23 -25 53 -61 49 -15 -2 -27 0 -27 3
0 3 -13 20 -30 38 -26 28 -32 30 -54 20 -14 -7 -28 -22 -31 -34 -3 -13 -12
-23 -20 -23 -17 0 -82 67 -91 94 -4 11 -15 27 -24 35 -21 18 -36 61 -22 61 6
0 5 10 -1 25 -7 14 -20 25 -30 25 -10 0 -31 7 -47 15 -19 10 -42 13 -62 9 -18
-3 -63 -7 -100 -8 -48 -1 -72 -6 -86 -19 -11 -10 -35 -20 -54 -23 -31 -6 -36
-3 -47 24 -21 49 -51 50 -67 2 -9 -28 -11 -35 -13 -51 -1 -6 -12 -4 -28 5 -16
9 -39 20 -53 26 -14 5 -32 14 -40 20 -8 5 -28 15 -44 20 -24 9 -26 13 -16 25
7 9 10 18 7 21 -3 3 -11 -3 -18 -15 -7 -11 -18 -17 -24 -12 -5 4 -22 12 -37
19 -24 10 -29 9 -37 -7 -9 -15 -1 -28 42 -71 105 -106 185 -142 202 -90 13 41
34 30 65 -34 16 -35 41 -71 55 -80 23 -15 35 -46 17 -46 -17 0 -81 41 -115 74
-23 22 -47 36 -63 36 -29 0 -58 14 -88 41 -11 11 -23 19 -28 19 -4 0 -38 28
-75 61 -37 34 -96 75 -130 92 -62 31 -79 56 -50 74 19 13 14 37 -13 55 -22 16
-26 16 -42 1 -22 -20 -59 -11 -107 27 -20 15 -52 31 -71 35 -45 9 -122 46
-137 66 -6 8 -30 21 -52 27 -22 7 -47 20 -56 28 -9 10 -39 17 -75 20 -33 2
-70 9 -83 15 -12 7 -23 11 -25 10 -6 -6 -69 12 -89 25 -13 8 -23 11 -23 8 0
-4 -8 0 -17 9 -10 8 -37 23 -60 32 -23 9 -43 24 -45 33 -3 14 -24 16 -149 17
-81 0 -152 -1 -158 -3z m229 -367 c8 -2 23 -4 33 -4 10 -1 17 -9 17 -20 0 -20
21 -29 85 -37 22 -2 57 -6 78 -9 20 -2 38 0 38 5 1 6 2 16 3 23 1 6 -2 17 -6
24 -15 19 8 23 28 5 66 -61 114 -83 304 -143 157 -50 276 -92 290 -104 8 -7
51 -32 95 -55 100 -53 103 -55 86 -82 -11 -17 -11 -22 1 -29 19 -13 28 -11 22
5 -5 12 7 14 49 7 5 0 6 -10 2 -21 -7 -23 8 -56 34 -69 16 -9 18 -7 15 14 -3
29 7 31 41 9 30 -19 41 -46 18 -42 -10 2 -19 -5 -21 -14 -2 -11 3 -18 12 -18
8 0 21 -6 28 -13 26 -26 67 -49 78 -42 6 4 9 3 8 -2 -5 -16 47 -89 113 -158
37 -38 89 -97 116 -131 62 -78 116 -125 147 -128 17 -2 35 -16 52 -42 15 -21
50 -63 78 -92 28 -29 51 -56 50 -60 0 -4 -4 -19 -8 -34 -6 -21 -1 -42 23 -93
17 -36 31 -67 31 -69 0 -3 17 -33 37 -67 21 -34 47 -98 58 -142 20 -80 41
-108 52 -68 8 33 21 25 28 -19 5 -30 3 -44 -10 -56 -12 -12 -15 -31 -12 -78 1
-34 6 -67 11 -74 4 -6 8 -33 9 -60 2 -26 6 -52 10 -59 6 -9 18 -137 20 -220 1
-13 4 -23 7 -23 11 0 60 63 60 78 0 28 11 5 14 -31 3 -25 -3 -46 -21 -71 -27
-42 -26 -41 -58 -20 -14 9 -25 12 -26 8 0 -5 -2 -19 -5 -30 -2 -12 -5 -49 -7
-83 l-3 -61 31 -6 c17 -3 44 -4 60 -2 30 3 30 2 31 -48 0 -30 7 -60 17 -74 21
-30 21 -55 3 -108 -8 -22 -17 -53 -19 -69 -13 -74 -30 -118 -60 -147 -9 -10
-17 -26 -17 -35 0 -10 -6 -24 -13 -30 -19 -15 -19 10 0 77 19 67 23 91 30 170
5 61 -9 122 -28 122 -5 0 -18 9 -29 20 -20 20 -20 20 -26 -8 -3 -15 -11 -43
-17 -62 -6 -19 -12 -46 -12 -60 0 -14 -4 -35 -9 -48 -4 -12 -8 -44 -10 -70 -1
-26 -14 -77 -28 -112 -25 -60 -63 -172 -73 -212 -10 -45 -163 -354 -182 -369
-11 -10 -13 -10 -11 1 4 16 -13 22 -30 12 -12 -8 -29 -92 -17 -92 3 0 15 9 27
20 12 11 24 18 26 15 11 -11 -21 -61 -48 -77 -16 -9 -40 -37 -52 -61 -66 -130
-240 -381 -308 -447 -20 -19 -46 -51 -58 -71 -20 -34 -122 -130 -146 -138 -22
-7 -46 -35 -46 -53 0 -10 -5 -18 -12 -18 -6 0 -28 -19 -49 -41 -35 -38 -40
-41 -68 -31 -28 10 -33 8 -64 -23 -19 -19 -40 -48 -46 -64 -7 -17 -26 -35 -43
-42 -16 -7 -35 -17 -42 -23 -19 -18 -75 -56 -81 -56 -3 0 -15 -9 -27 -20 -11
-10 -36 -26 -54 -35 -18 -8 -36 -20 -39 -25 -3 -5 -12 -7 -20 -3 -15 5 -74
-14 -85 -27 -19 -23 -84 -51 -105 -46 -17 4 -31 -1 -48 -16 -14 -13 -39 -35
-56 -51 -17 -15 -31 -36 -31 -47 0 -11 -6 -20 -14 -20 -7 0 -40 -12 -72 -27
-67 -30 -75 -32 -90 -21 -10 7 -64 2 -73 -8 -2 -2 -10 1 -18 7 -10 9 -13 8
-13 -4 0 -8 -7 -18 -16 -21 -8 -3 -13 -9 -10 -14 2 -4 -9 -15 -25 -24 -16 -9
-31 -13 -34 -8 -3 4 -24 6 -46 3 -33 -5 -41 -3 -37 8 3 8 12 13 21 11 9 -2 26
2 38 9 55 29 -71 35 -161 7 -19 -6 -51 -10 -72 -10 -20 1 -50 -3 -65 -9 -15
-7 -44 -12 -63 -13 -20 -1 -40 -5 -45 -8 -6 -3 -65 -5 -132 -3 -106 2 -124 5
-148 23 -19 15 -32 19 -44 13 -22 -12 -65 5 -58 23 3 8 0 22 -7 31 -11 16 -14
16 -28 1 -23 -22 -33 -20 -35 7 -1 12 -12 30 -25 40 -13 10 -30 24 -39 31 -20
17 -49 16 -49 -1 0 -25 -38 -4 -83 45 -77 84 -148 146 -170 149 -34 5 -159
140 -193 208 -16 33 -32 62 -36 63 -5 2 -8 9 -8 16 0 7 -15 33 -33 57 -19 24
-42 67 -52 94 -11 28 -25 61 -32 75 -7 14 -13 35 -13 48 0 12 -4 22 -10 22 -5
0 -10 12 -10 26 0 15 -13 41 -30 61 -17 19 -28 38 -25 43 3 4 -6 15 -20 24
-14 9 -25 23 -25 31 0 15 6 22 69 78 39 36 39 64 1 106 -17 18 -34 47 -37 64
-4 17 -15 40 -25 51 -17 18 -23 42 -19 74 1 7 -5 15 -13 18 -9 3 -13 11 -10
16 4 6 7 20 8 32 1 25 48 32 70 10 19 -18 30 -18 46 2 12 13 16 12 38 -11 20
-22 26 -24 40 -13 33 26 61 63 62 80 0 9 11 34 25 54 14 20 25 40 25 44 0 12
-54 63 -101 96 -51 36 -79 47 -79 34 0 -6 -15 -10 -32 -10 -32 1 -32 1 -10 13
12 7 19 16 16 20 -4 4 0 7 9 7 9 0 19 -4 22 -10 3 -5 20 -10 36 -10 l30 0 -20
28 c-11 15 -31 40 -45 56 -14 16 -26 30 -26 32 0 6 66 -19 80 -31 8 -7 32 -18
52 -24 51 -17 67 -38 28 -38 -17 0 -33 -2 -36 -6 -7 -6 75 -107 87 -107 4 0
10 14 14 30 8 36 21 39 29 7 5 -23 66 -97 79 -97 4 0 4 12 1 27 -4 15 -7 34
-7 43 0 8 -6 23 -13 34 -15 21 -8 46 18 64 33 24 14 164 -28 198 -16 13 -128
8 -132 -6 -2 -5 -8 -7 -14 -4 -5 3 -12 -4 -15 -15 -4 -17 -8 -19 -20 -9 -11 9
-16 9 -22 0 -9 -15 -37 -6 -45 14 -3 8 7 28 24 46 17 17 31 34 31 37 1 3 3 16
4 27 1 12 11 35 23 51 18 25 19 32 8 63 -17 49 -43 96 -51 91 -3 -1 -19 2 -35
9 -24 10 -38 9 -74 -3 -35 -12 -47 -13 -55 -3 -6 7 -42 12 -92 14 -45 1 -90 4
-100 7 -19 6 -20 4 -23 -41 0 -11 -7 -29 -15 -38 -13 -15 -12 -21 2 -45 9 -16
14 -31 11 -34 -12 -11 45 -28 59 -17 11 9 37 6 37 -5 0 -23 -12 -45 -21 -39
-16 10 -9 -12 11 -34 12 -12 22 -42 26 -72 l6 -52 -28 6 c-16 4 -38 8 -49 10
-11 2 -32 7 -47 11 -37 10 -98 12 -98 4 0 -4 -9 -9 -21 -12 -16 -4 -19 -11
-14 -26 5 -17 0 -21 -30 -27 -32 -6 -36 -9 -31 -30 5 -17 1 -24 -14 -29 -28
-9 -67 -69 -81 -127 -7 -26 -16 -48 -20 -48 -4 0 -10 -12 -13 -27 -4 -16 -9
-39 -12 -53 -3 -14 -7 -32 -9 -40 -2 -8 -4 -20 -4 -27 -1 -12 -25 -12 -37 0
-4 3 1 24 10 47 9 22 16 50 16 62 0 12 7 30 17 40 9 10 11 18 5 18 -6 0 0 19
13 42 21 36 22 46 12 63 -7 11 -14 33 -15 49 -1 16 -9 40 -17 52 -8 13 -15 30
-15 39 0 14 69 65 89 65 5 0 22 5 36 10 23 9 25 13 15 25 -12 15 -6 64 9 75 4
3 14 20 23 39 15 31 15 36 -4 66 -25 43 -57 59 -89 43 -11 -5 -21 -2 -29 7
-10 12 -8 18 11 34 13 11 37 22 52 25 16 3 41 14 55 25 26 18 97 37 117 32 35
-10 44 -8 48 11 4 14 11 18 24 14 10 -3 61 -8 115 -11 77 -5 102 -3 126 9 17
9 37 14 44 12 7 -3 33 -7 58 -10 25 -3 60 -10 78 -16 25 -9 39 -9 61 0 39 16
80 -6 119 -63 16 -23 48 -64 70 -91 52 -63 66 -100 45 -118 -12 -10 -17 -9
-28 5 -17 23 -22 21 -28 -8 -3 -17 2 -34 14 -48 l19 -22 6 23 c3 12 10 22 15
22 4 0 17 9 28 21 l19 21 21 -21 20 -20 16 22 16 22 36 -40 c19 -22 43 -52 52
-66 44 -71 104 -128 87 -83 -3 8 0 29 7 47 9 20 11 43 6 60 -8 31 5 36 21 7 6
-11 17 -20 24 -20 7 0 18 -10 23 -22 10 -21 11 -20 11 12 0 19 3 60 7 90 4 30
8 61 8 68 0 7 6 11 12 8 20 -7 34 15 28 45 -4 21 1 34 20 53 52 52 116 41 80
-13 -14 -22 -14 -25 2 -37 14 -11 23 -11 49 0 29 12 81 4 101 -15 6 -7 -41
-105 -55 -114 -6 -3 -10 -22 -10 -41 0 -21 -8 -43 -19 -56 -11 -11 -24 -33
-29 -48 -9 -24 -3 -35 49 -103 33 -42 59 -82 59 -87 0 -6 27 -37 59 -69 56
-54 63 -58 111 -59 57 -1 97 -25 116 -70 33 -78 124 -132 224 -132 36 0 50 -4
50 -14 0 -8 16 -24 36 -35 34 -20 38 -21 60 -6 13 8 24 12 24 9 0 -4 8 0 19
10 23 21 50 11 57 -23 3 -14 10 -39 16 -54 11 -27 13 -28 72 -26 80 2 94 9
281 125 87 53 182 106 212 116 30 9 76 34 103 55 26 21 57 45 69 53 11 8 20
19 19 25 -2 14 12 46 33 73 10 13 27 43 39 67 17 36 29 47 58 55 51 14 51 13
49 -17 -5 -69 40 -15 65 77 6 25 13 50 14 55 2 6 17 44 34 85 53 131 66 150
97 150 21 0 47 39 59 90 4 19 8 37 9 40 1 3 5 25 9 50 5 25 10 53 12 63 2 11
6 69 9 130 5 95 10 134 29 232 1 6 6 25 10 44 8 32 14 81 15 125 1 20 1 20 15
0 13 -18 14 -17 11 11 -2 17 -6 62 -10 100 -8 92 -21 148 -50 210 -12 28 -30
72 -39 98 -14 43 -41 94 -56 107 -3 3 -21 34 -39 70 -18 36 -43 79 -56 95 -26
35 -65 110 -70 134 -9 47 -33 80 -117 165 -51 51 -103 100 -116 108 -12 8 -39
30 -60 49 -47 43 -97 85 -147 124 -21 17 -44 36 -51 42 -7 7 -69 51 -139 98
-115 77 -251 152 -360 197 -87 36 -207 83 -215 83 -3 1 -30 8 -60 18 -72 22
-159 46 -165 46 -3 0 -24 2 -48 6 -23 3 -69 7 -102 10 -58 4 -102 10 -136 21
-9 2 -45 7 -80 10 -35 2 -72 7 -82 10 -10 3 -42 7 -70 9 -46 3 -75 6 -177 20
-14 2 -32 4 -40 5 -31 3 67 31 121 34 34 3 75 14 107 30 28 14 59 28 69 29 10
2 29 7 43 10 14 4 39 8 55 11 17 2 50 12 75 22 29 11 77 18 135 20 61 1 111 9
155 23 64 22 168 29 210 16 14 -5 27 1 43 19 13 15 28 23 37 20 8 -3 22 -7 30
-9z m-1275 -215 c-3 -5 -12 -10 -18 -10 -7 0 -6 4 3 10 19 12 23 12 15 0z m45
4 c0 -8 -19 -13 -24 -6 -3 5 1 9 9 9 8 0 15 -2 15 -3z m-100 -14 c0 -5 -4 -10
-10 -10 -5 0 -10 5 -10 10 0 6 5 10 10 10 6 0 10 -4 10 -10z m-45 -10 c-11 -5
-27 -9 -35 -9 -9 0 -8 4 5 9 11 5 27 9 35 9 9 0 8 -4 -5 -9z m3028 -320 c30
-27 59 -50 64 -50 6 0 18 -10 29 -22 19 -21 19 -21 -4 -16 -12 4 -20 2 -17 -2
3 -5 -4 -10 -16 -12 -20 -3 -19 -6 15 -43 20 -22 44 -50 54 -62 9 -13 22 -23
28 -23 6 0 24 -16 39 -36 26 -34 46 -46 108 -64 26 -8 27 -7 22 21 l-5 29 44
-27 c44 -27 82 -75 72 -92 -5 -8 49 -51 128 -103 29 -19 76 -71 76 -84 0 -16
44 -34 60 -24 19 12 37 2 45 -23 12 -37 12 -41 -7 -60 -11 -10 -17 -26 -14
-35 3 -9 8 -29 12 -44 3 -16 10 -28 14 -28 4 0 10 -10 13 -21 5 -19 11 -21 38
-15 18 3 40 13 49 21 31 28 39 16 18 -27 -12 -24 -22 -54 -23 -68 -2 -33 36
-143 90 -255 59 -124 64 -138 67 -190 0 -16 7 -39 14 -50 25 -35 13 -99 -17
-95 -8 1 -25 2 -38 1 -33 -1 -13 -23 25 -27 22 -2 49 -22 41 -31 -1 -1 -26 -3
-54 -4 -43 -2 -53 -6 -57 -23 -7 -28 6 -39 36 -27 19 7 27 5 36 -10 6 -10 9
-25 6 -34 -7 -17 -30 -20 -39 -5 -4 7 -12 7 -25 0 -15 -8 -18 -6 -18 13 0 12
-5 40 -12 62 -6 22 -18 69 -25 104 -7 35 -19 67 -26 72 -9 5 -14 31 -14 78 0
57 -4 74 -22 93 -12 13 -32 45 -45 72 -26 55 -43 67 -51 36 -10 -39 -56 4 -62
60 -2 15 -9 37 -25 75 -5 11 -11 38 -13 60 -12 113 -43 210 -73 228 -7 4 -27
34 -45 67 -20 38 -40 62 -54 66 -14 3 -37 32 -65 82 -24 42 -48 80 -54 84 -20
14 -55 8 -66 -9 -10 -17 -11 -17 -23 1 -7 10 -36 50 -64 90 -97 131 -172 248
-178 277 -4 16 -10 29 -14 29 -13 0 -51 41 -51 55 0 25 16 17 73 -35z m267
-460 c0 -5 -2 -10 -4 -10 -3 0 -8 5 -11 10 -3 6 -1 10 4 10 6 0 11 -4 11 -10z
m670 -1272 c0 -38 1 -40 25 -34 l25 6 -21 -37 c-12 -21 -25 -43 -30 -49 -6 -7
-9 -16 -8 -20 3 -19 -1 -47 -7 -42 -8 9 -14 181 -7 207 8 33 23 14 23 -31z
m-3448 -221 c-29 -35 -31 -64 -6 -98 31 -43 30 -49 -7 -45 -36 4 -50 -13 -73
-92 -16 -57 -16 -54 -16 -79 -1 -16 -2 -16 -13 2 -6 11 -12 28 -13 38 -1 9 -2
21 -3 26 0 5 -17 9 -36 9 -26 0 -42 7 -58 26 -13 14 -29 26 -36 26 -26 0 -4
11 30 15 58 8 156 62 173 96 8 16 13 36 10 44 -3 8 6 20 23 29 35 19 38 19 25
3z m3411 -137 c10 0 15 -68 7 -105 -5 -22 1 -31 29 -48 25 -15 28 -21 22 -45
-4 -15 -4 -45 1 -67 21 -101 21 -113 2 -112 -48 0 -55 -4 -61 -33 -4 -24 -8
-28 -19 -19 -8 6 -14 16 -14 21 0 6 -11 23 -24 39 -24 28 -25 41 -11 104 8 38
-39 71 -50 35 -7 -21 -37 -22 -57 -2 -12 12 -11 13 31 16 8 1 20 20 26 44 27
91 76 184 93 177 8 -3 19 -5 25 -5z m-453 -510 c0 -5 -5 -10 -11 -10 -5 0 -7
5 -4 10 3 6 8 10 11 10 2 0 4 -4 4 -10z m418 -3 c17 -20 7 -127 -16 -172 -11
-21 -18 -45 -15 -52 6 -15 49 -17 58 -3 8 13 24 4 21 -13 -8 -47 -17 -56 -51
-53 -21 2 -39 -2 -46 -10 -6 -8 -8 -14 -3 -14 5 0 -2 -7 -14 -16 -19 -13 -22
-22 -17 -46 5 -20 3 -33 -5 -38 -7 -4 -14 -27 -16 -51 -2 -24 -15 -73 -29
-108 -15 -35 -24 -69 -21 -76 5 -15 89 -11 94 4 2 5 10 7 18 4 7 -3 11 -10 7
-17 -4 -6 -8 -15 -8 -21 0 -11 -45 -35 -79 -41 -18 -3 -31 4 -50 27 -14 17
-23 35 -20 40 3 6 7 31 9 57 5 64 10 84 39 147 29 63 30 136 2 178 -10 15 -22
27 -26 27 -8 0 -42 -64 -55 -105 -6 -19 -7 -19 -19 -3 -7 10 -16 15 -19 11
-12 -11 -7 -41 8 -57 9 -8 22 -33 30 -55 12 -35 12 -45 -2 -80 -13 -32 -14
-48 -5 -83 12 -45 1 -75 -22 -61 -21 14 -36 11 -37 -5 -4 -36 3 -88 13 -99 14
-17 90 -59 133 -73 39 -13 54 -45 35 -79 -9 -17 -6 -29 14 -64 l26 -43 -38
-41 c-20 -22 -52 -59 -70 -82 -18 -22 -40 -41 -49 -41 -8 0 -28 -11 -45 -25
-29 -24 -48 -32 -48 -19 0 4 14 29 30 56 17 26 30 53 30 58 0 6 4 10 8 10 11
0 40 65 46 104 5 30 -13 75 -45 109 -10 12 -19 24 -19 28 0 4 -7 9 -15 13 -9
3 -23 -7 -39 -30 -13 -20 -27 -35 -30 -35 -21 3 -26 -1 -26 -22 0 -12 -9 -30
-20 -40 -12 -10 -18 -22 -15 -27 9 -15 -21 -62 -70 -109 -43 -40 -47 -41 -45
-20 1 13 2 35 1 48 l-1 25 -21 -23 c-20 -21 -22 -21 -40 -5 -27 25 -71 5 -65
-29 3 -19 -6 -34 -39 -65 -24 -22 -53 -62 -65 -89 -49 -112 -55 -120 -100
-144 -36 -19 -51 -36 -75 -84 -16 -33 -36 -66 -42 -73 -7 -7 -13 -17 -13 -22
0 -10 -47 -60 -56 -60 -7 0 1 75 11 108 6 19 4 22 -18 22 -13 0 -37 7 -53 15
-23 12 -32 12 -47 2 -10 -6 -18 -15 -18 -19 1 -5 1 -21 1 -38 0 -22 4 -28 15
-23 12 4 15 0 11 -20 -2 -14 -10 -36 -17 -49 -20 -38 -149 -166 -213 -211 -33
-23 -73 -55 -89 -70 -20 -19 -37 -27 -51 -23 -29 7 -42 -4 -42 -34 0 -21 -4
-25 -28 -25 -15 0 -33 -8 -40 -17 -18 -24 -23 -23 -61 16 l-33 34 -34 -17
c-19 -11 -37 -31 -43 -47 -13 -38 -25 -49 -55 -49 -14 -1 -37 -4 -52 -8 -36
-9 -35 0 1 39 22 23 27 34 18 43 -13 13 -73 15 -81 2 -12 -19 -57 -9 -68 15
-9 19 -7 30 13 59 13 19 33 38 44 41 11 4 24 13 30 20 12 15 124 74 186 97 52
20 90 50 108 85 6 12 18 22 26 22 7 0 23 12 35 28 12 15 23 25 23 23 1 -2 18
12 39 33 43 43 91 49 126 15 25 -23 43 -18 35 10 -5 21 25 101 39 101 4 0 8 7
8 16 0 21 55 96 88 121 15 11 39 24 52 28 27 8 87 50 108 75 7 8 33 47 59 85
26 39 61 88 78 110 17 22 46 69 64 105 43 82 102 164 154 209 10 9 25 41 34
71 22 79 70 166 99 178 13 7 38 34 54 61 17 27 38 52 47 55 12 5 14 15 10 41
-3 20 -1 35 5 37 8 3 8 13 1 33 -6 20 -5 47 4 90 17 69 33 94 33 49 0 -26 6
-34 40 -49 26 -12 40 -25 40 -37 0 -27 25 -22 40 10 8 15 30 43 50 63 19 19
44 46 54 59 12 15 21 20 24 12 4 -14 38 -16 47 -2 3 5 12 7 19 4 16 -6 28 6
56 54 21 34 41 40 58 19z m-4076 -117 c4 -10 -19 -42 -24 -34 -16 30 -15 41 3
40 11 -1 20 -3 21 -6z m-920 -386 c-2 -10 -4 -25 -4 -33 -1 -10 -4 -10 -14 3
-14 20 -7 59 10 53 6 -2 10 -13 8 -23z m22 -69 c3 -8 1 -15 -4 -15 -6 0 -10 7
-10 15 0 8 2 15 4 15 2 0 6 -7 10 -15z m34 -77 c7 -7 12 -27 12 -45 l0 -33
-32 13 c-36 15 -47 40 -28 62 15 18 32 19 48 3z m-739 -438 c4 -3 23 -35 42
-71 19 -36 55 -98 82 -137 26 -40 47 -77 47 -82 0 -6 4 -10 9 -10 5 0 13 -9
16 -21 4 -11 19 -33 33 -48 50 -52 117 -132 126 -152 5 -10 13 -19 17 -19 11
0 31 -38 40 -77 12 -56 -12 -38 -81 60 -36 50 -87 114 -113 141 -27 28 -58 69
-68 92 -11 22 -28 50 -37 60 -10 10 -29 46 -42 79 -13 33 -38 90 -57 127 -18
37 -32 75 -32 85 1 15 2 15 6 -2 3 -11 8 -22 12 -25z m5311 -250 c0 -5 -4 -10
-10 -10 -5 0 -10 5 -10 10 0 6 5 10 10 10 6 0 10 -4 10 -10z m-2390 -667 c0
-14 -28 -29 -45 -23 -18 6 -18 7 -1 17 18 10 46 13 46 6z m1205 -383 c4 -7
-25 -31 -45 -35 -3 -1 -16 -6 -30 -12 -46 -19 -70 -24 -70 -16 0 36 92 98 122
82 9 -5 20 -13 23 -19z m-2675 -417 c19 -8 42 -22 51 -30 10 -8 32 -15 50 -15
19 -1 39 -8 45 -16 5 -8 26 -15 45 -17 21 -1 34 -8 34 -16 0 -19 -65 -12 -80
8 -7 9 -34 17 -71 20 -32 2 -63 10 -69 17 -5 6 -31 24 -57 39 -27 15 -48 30
-48 33 0 8 64 -6 100 -23z m1320 -152 c0 -17 -18 -21 -24 -6 -3 9 0 15 9 15 8
0 15 -4 15 -9z m-1015 -11 c4 -6 10 -8 15 -5 5 3 11 1 15 -4 3 -5 15 -8 27 -6
23 5 168 -58 168 -72 0 -15 -50 -13 -75 3 -13 9 -26 15 -30 15 -15 -3 -63 14
-83 30 -13 10 -30 15 -38 12 -15 -5 -44 13 -44 28 0 12 37 11 45 -1z m1128
-124 c8 -20 -22 -29 -39 -12 -11 11 -11 16 -1 19 22 10 35 7 40 -7z m1165
-267 c20 -7 29 -15 25 -25 -10 -27 -135 -70 -195 -67 -10 0 -29 1 -43 2 -29 1
-33 25 -9 56 26 35 160 56 222 34z"/>
<path d="M6540 4920 c0 -12 37 -50 48 -50 16 0 31 16 24 26 -16 25 -72 43 -72
24z"/>
<path d="M3295 3381 c-3 -8 -2 -17 3 -20 4 -3 29 -21 54 -39 26 -17 49 -28 52
-23 6 9 -23 90 -33 92 -38 7 -71 3 -76 -10z"/>
<path d="M4985 3000 c-3 -5 -1 -10 4 -10 6 0 11 5 11 10 0 6 -2 10 -4 10 -3 0
-8 -4 -11 -10z"/>
<path d="M3133 2464 c-10 -27 6 -108 26 -128 19 -18 19 -18 35 12 24 46 21 97
-6 116 -28 20 -47 20 -55 0z"/>
<path d="M3395 2146 c-10 -7 -16 -18 -14 -23 10 -27 123 -143 139 -143 30 0
33 18 8 50 -13 16 -34 44 -47 62 -38 53 -65 70 -86 54z"/>
<path d="M4486 1995 c-3 -9 0 -18 8 -21 24 -9 61 0 64 16 4 22 -63 27 -72 5z"/>
<path d="M3750 1930 c0 -5 5 -10 10 -10 6 0 10 5 10 10 0 6 -4 10 -10 10 -5 0
-10 -4 -10 -10z"/>
<path d="M4350 1925 c-14 -8 -32 -14 -41 -15 -9 0 -27 -9 -40 -19 l-24 -20 25
-9 c19 -7 34 -3 73 20 26 15 52 28 57 28 6 0 10 7 10 15 0 19 -27 19 -60 0z"/>
<path d="M4683 1933 c-16 -6 -17 -43 -2 -43 15 0 69 33 69 42 0 9 -47 10 -67
1z"/>
<path d="M3556 1901 c-4 -7 -5 -15 -2 -18 9 -9 19 4 14 18 -4 11 -6 11 -12 0z"/>
<path d="M4200 1859 c0 -5 5 -7 10 -4 6 3 10 8 10 11 0 2 -4 4 -10 4 -5 0 -10
-5 -10 -11z"/>
<path d="M4041 1814 c0 -11 3 -14 6 -6 3 7 2 16 -1 19 -3 4 -6 -2 -5 -13z"/>
<path d="M6726 3093 c-6 -14 -5 -15 5 -6 7 7 10 15 7 18 -3 3 -9 -2 -12 -12z"/>
<path d="M6542 2881 c-13 -8 -17 -45 -14 -120 2 -42 18 -31 26 17 4 17 8 46
11 64 3 17 8 35 11 40 7 10 -17 10 -34 -1z"/>
<path d="M6305 2730 c3 -5 8 -10 11 -10 2 0 4 5 4 10 0 6 -5 10 -11 10 -5 0
-7 -4 -4 -10z"/>
<path d="M6400 2703 c0 -10 4 -14 8 -8 4 6 11 13 16 18 5 4 2 7 -7 7 -10 0
-17 -8 -17 -17z"/>
<path d="M6035 2437 c-20 -48 -19 -55 4 -30 11 12 26 23 33 26 10 3 9 9 -4 23
-17 17 -18 16 -33 -19z"/>
<path d="M4180 7241 c0 -6 9 -9 19 -8 11 0 17 5 15 9 -7 11 -34 10 -34 -1z"/>
<path d="M5198 7158 c-32 -50 -30 -56 20 -79 76 -34 128 -47 146 -37 9 5 16 5
16 1 0 -4 25 -21 55 -37 50 -26 74 -30 138 -26 18 1 25 20 7 20 -5 0 -10 6
-10 14 0 13 -74 53 -155 83 -22 8 -70 30 -107 49 -78 40 -91 41 -110 12z"/>
<path d="M6855 6851 c-3 -5 -1 -12 5 -16 5 -3 10 1 10 9 0 18 -6 21 -15 7z"/>
<path d="M6937 6730 c7 -25 23 -37 23 -17 0 8 -6 20 -14 26 -12 10 -13 8 -9
-9z"/>
<path d="M7390 6584 c0 -8 5 -12 10 -9 6 3 10 10 10 16 0 5 -4 9 -10 9 -5 0
-10 -7 -10 -16z"/>
<path d="M6608 6583 c7 -3 16 -2 19 1 4 3 -2 6 -13 5 -11 0 -14 -3 -6 -6z"/>
<path d="M7162 6243 c2 -9 8 -18 15 -20 7 -3 9 3 6 16 -6 25 -26 28 -21 4z"/>
<path d="M7602 5515 c-30 -7 -56 -15 -58 -18 -7 -7 34 -137 47 -154 6 -7 19
-13 28 -13 12 0 16 -9 15 -37 -2 -53 18 -85 64 -106 39 -17 42 -17 61 0 33 28
29 57 -35 218 -10 24 -11 33 -13 65 -3 52 -30 64 -109 45z"/>
<path d="M7608 5009 c-13 -8 -38 -113 -38 -161 0 -57 26 -78 98 -78 32 0 63
-5 69 -11 16 -16 28 -5 31 30 2 25 -3 33 -23 41 -24 9 -29 19 -26 48 1 8 -4
24 -12 36 -9 12 -21 41 -27 63 -10 34 -17 41 -37 39 -14 0 -29 -4 -35 -7z"/>
<path d="M7529 4358 c-1 -7 -3 -31 -4 -54 -1 -23 -5 -46 -8 -51 -4 -6 0 -16 8
-23 14 -12 15 -43 2 -56 -15 -15 -5 -37 33 -75 36 -35 42 -38 62 -28 13 7 25
15 28 18 17 21 104 54 145 56 31 1 45 14 45 40 0 27 -30 51 -74 59 -35 6 -33
4 -39 44 -3 19 -8 36 -11 40 -3 3 -29 6 -58 8 -29 1 -54 6 -56 12 -1 5 -11 8
-21 5 -10 -3 -22 0 -25 6 -10 15 -26 14 -27 -1z"/>
<path d="M7766 2458 c-22 -13 -68 -51 -108 -91 -37 -37 -97 -77 -115 -77 -29
0 -81 -32 -88 -53 -11 -35 -12 -40 -18 -75 -3 -18 -10 -39 -16 -46 -17 -20 0
-28 24 -12 17 11 30 12 61 4 73 -20 113 5 196 122 25 36 64 82 86 102 44 42
57 74 42 112 -10 28 -33 33 -64 14z"/>
<path d="M6983 1997 c-54 -37 -65 -85 -38 -162 13 -35 12 -42 -4 -70 -20 -32
-20 -38 0 -115 17 -68 57 -78 60 -15 2 69 19 111 63 156 13 15 26 33 27 40 5
26 -56 190 -70 188 -3 0 -20 -10 -38 -22z"/>
<path d="M6790 1675 c0 -9 6 -12 15 -9 8 4 12 10 9 15 -8 14 -24 10 -24 -6z"/>
<path d="M6849 1648 c-4 -32 3 -93 12 -110 5 -10 19 -18 29 -18 11 0 29 -6 40
-12 32 -21 47 3 27 44 -25 51 -106 123 -108 96z"/>
<path d="M6252 1578 c3 -7 13 -15 24 -17 16 -3 17 -1 5 13 -16 19 -34 21 -29
4z"/>
<path d="M6539 1563 c-15 -18 -22 -150 -9 -158 12 -7 33 42 24 56 -3 5 0 9 6
9 6 0 9 4 6 9 -3 5 1 22 9 37 8 16 15 34 15 40 0 18 -38 23 -51 7z"/>
<path d="M6371 1488 c-10 -27 -6 -38 15 -38 16 0 19 16 3 25 -6 4 -8 13 -5 21
3 8 3 14 0 14 -2 0 -8 -10 -13 -22z"/>
<path d="M5946 1405 c-15 -23 -21 -45 -11 -45 12 0 55 24 55 31 0 15 -12 39
-20 39 -4 0 -15 -11 -24 -25z"/>
<path d="M4844 824 c-9 -49 4 -56 50 -27 l40 26 -23 18 c-37 30 -59 24 -67
-17z"/>
</g>
</svg>
