<?xml version="1.0" encoding="utf-8"?>
<!-- Generator: Adobe Illustrator 26.2.1, SVG Export Plug-In . SVG Version: 6.00 Build 0)  -->
<svg version="1.1" id="Layer_1" xmlns="http://www.w3.org/2000/svg" xmlns:xlink="http://www.w3.org/1999/xlink" x="0px" y="0px"
	 viewBox="0 0 24 24" style="enable-background:new 0 0 24 24;" xml:space="preserve">
<style type="text/css">
	.st0{fill:#494949;}
</style>
<path class="st0" d="M16.1,15.1L18,3h-4V2h-4v1H5C3.9,3,3,3.9,3,5v4c0,1.1,0.9,2,2,2h2.2l0.6,4.1C6.7,16,6,17.4,6,19v1
	c0,1.1,0.9,2,2,2h8c1.1,0,2-0.9,2-2v-1C18,17.4,17.3,16,16.1,15.1 M5,9V5h1.3l0.6,4H5 M12,19c-0.6,0-1-0.5-1-1s0.4-1,1-1s1,0.5,1,1
	S12.6,19,12,19 M14.3,14H9.7L8.3,5h7.3L14.3,14z"/>
</svg>
