<?xml version="1.0" encoding="utf-8"?>
<!-- Generator: Adobe Illustrator 26.2.1, SVG Export Plug-In . SVG Version: 6.00 Build 0)  -->
<svg version="1.1" id="Layer_1" xmlns="http://www.w3.org/2000/svg" xmlns:xlink="http://www.w3.org/1999/xlink" x="0px" y="0px"
	 viewBox="0 0 24 24" style="enable-background:new 0 0 24 24;" xml:space="preserve">
<style type="text/css">
	.st0{fill:#494949;}
</style>
<path class="st0" d="M21,12.1c0.1,0,0.3,0.1,0.4,0.2l1.3,1.3c0.2,0.2,0.2,0.6,0,0.8l-1,1l-2.1-2.1l1-1C20.8,12.2,20.9,12.1,21,12.1
	 M19.1,13.9l2.1,2.1L15.1,22H13v-2.1L19.1,13.9 M11,19l-2,2H5c-1.1,0-2-0.9-2-2V5c0-1.1,0.9-2,2-2h4.2c0.4-1.2,1.5-2,2.8-2
	s2.4,0.8,2.8,2H19c1.1,0,2,0.9,2,2v4l-2,2V5h-2v2H7V5H5v14H11 M12,3c-0.6,0-1,0.5-1,1s0.4,1,1,1s1-0.4,1-1S12.6,3,12,3z"/>
</svg>
