<?xml version="1.0" encoding="utf-8"?>
<!-- Generator: Adobe Illustrator 26.2.1, SVG Export Plug-In . SVG Version: 6.00 Build 0)  -->
<svg version="1.1" id="Layer_1" xmlns="http://www.w3.org/2000/svg" xmlns:xlink="http://www.w3.org/1999/xlink" x="0px" y="0px"
	 viewBox="0 0 24 24" style="enable-background:new 0 0 24 24;" xml:space="preserve">
<style type="text/css">
	.st0{fill:#494949;}
</style>
<path class="st0" d="M18,15H6l-4,4V3c0-0.6,0.4-1,1-1h15c0.6,0,1,0.4,1,1v11C19,14.6,18.6,15,18,15 M23,9v14l-4-4H8
	c-0.6,0-1-0.4-1-1v-1h14V8h1C22.6,8,23,8.4,23,9 M8.2,4C7.3,4,6.6,4.2,6.1,4.6C5.6,5,5.3,5.6,5.3,6.4l0,0h1.9c0-0.3,0.1-0.5,0.3-0.7
	c0.2-0.1,0.4-0.2,0.7-0.2c0.3,0,0.6,0.1,0.8,0.3c0.2,0.2,0.3,0.4,0.3,0.8c0,0.3-0.1,0.6-0.2,0.8C8.8,7.6,8.6,7.8,8.4,7.9
	c-0.5,0.3-0.9,0.6-1,0.9C7.1,9.1,7,9.5,7,10h2c0-0.3,0-0.6,0.1-0.7c0.1-0.2,0.3-0.4,0.5-0.5c0.4-0.2,0.8-0.5,1.1-0.9
	s0.4-0.8,0.4-1.3c0-0.8-0.3-1.4-0.8-1.8C9.9,4.2,9.1,4,8.2,4 M7,11v2h2v-2H7 M13,13h2v-2h-2V13 M13,4v6h2V4H13z"/>
</svg>
