<?xml version="1.0" encoding="utf-8"?>
<!-- Generator: Adobe Illustrator 26.2.1, SVG Export Plug-In . SVG Version: 6.00 Build 0)  -->
<svg version="1.1" id="Layer_1" xmlns="http://www.w3.org/2000/svg" xmlns:xlink="http://www.w3.org/1999/xlink" x="0px" y="0px"
	 viewBox="0 0 24 24" style="enable-background:new 0 0 24 24;" xml:space="preserve">
<style type="text/css">
	.st0{fill:#494949;}
</style>
<path class="st0" d="M20,17c1.1,0,2-0.9,2-2V4c0-1.1-0.9-2-2-2H9.5C9.8,2.6,10,3.3,10,4h10v11h-9v2 M15,7v2H9v13H7v-6H5v6H3v-8H1.5
	V9c0-1.1,0.9-2,2-2H15 M8,4c0,1.1-0.9,2-2,2S4,5.1,4,4s0.9-2,2-2S8,2.9,8,4z"/>
</svg>
