<?xml version="1.0" encoding="utf-8"?>
<!-- Generator: Adobe Illustrator 26.2.1, SVG Export Plug-In . SVG Version: 6.00 Build 0)  -->
<svg version="1.1" id="Layer_1" xmlns="http://www.w3.org/2000/svg" xmlns:xlink="http://www.w3.org/1999/xlink" x="0px" y="0px"
	 viewBox="0 0 24 24" style="enable-background:new 0 0 24 24;" xml:space="preserve">
<style type="text/css">
	.st0{fill:#494949;}
</style>
<path class="st0" d="M6.9,5.5l2.3,2.3L7.8,9.2L5.5,6.9L3.2,9.2L1.8,7.8l2.3-2.3L1.8,3.2l1.4-1.4l2.3,2.3l2.3-2.3l1.4,1.4 M22.2,16.2
	l-1.4-1.4l-2.3,2.3l-2.3-2.3l-1.4,1.4l2.3,2.3l-2.3,2.3l1.4,1.4l2.3-2.3l2.3,2.3l1.4-1.4l-2.3-2.3 M20.4,6.8L17.2,11l-1.6-1.3
	l1.2-1.5c-3,0.6-5.5,2.7-6.7,5.6c2,1.5,2.5,4.3,1,6.3s-4.3,2.5-6.3,1s-2.5-4.3-1-6.3C4.7,13.7,6,13,7.5,13c0.3,0,0.5,0,0.8,0.1
	c1.4-3.5,4.5-6.1,8.2-6.8L15,5.2l1.3-1.6 M10,17.5c0-1.4-1.1-2.5-2.5-2.5S5,16.1,5,17.5S6.1,20,7.5,20S10,18.9,10,17.5z"/>
</svg>
