<?xml version="1.0" encoding="utf-8"?>
<!-- Generator: Adobe Illustrator 26.2.1, SVG Export Plug-In . SVG Version: 6.00 Build 0)  -->
<svg version="1.1" id="Layer_1" xmlns="http://www.w3.org/2000/svg" xmlns:xlink="http://www.w3.org/1999/xlink" x="0px" y="0px"
	 viewBox="0 0 98.2 94.6" style="enable-background:new 0 0 98.2 94.6;" xml:space="preserve">
<style type="text/css">
	.st0{fill-rule:evenodd;clip-rule:evenodd;fill:#FCC04F;}
</style>
<g id="a">
</g>
<g id="b">
	<g id="c">
		<g>
			<path class="st0" d="M73.4,17.1C73.4,17.1,73.4,17.2,73.4,17.1L73.4,17.1C73.5,17.2,73.5,17.1,73.4,17.1z"/>
			<path class="st0" d="M89,38c0.1-0.7-0.1-1.3-0.2-1.8c-0.2-0.5-0.3-1-0.4-1.7c0-0.2-0.1-0.4-0.2-0.4c-0.4,0-0.2-0.8-0.2-1
				c0.1-0.6-0.1-1.1-0.3-1.2c-0.2-0.1-0.3-0.4-0.5-0.8c-0.4-1-0.4-0.9-0.7-0.5c-0.2,0.4-0.4,0.2-0.8-0.7c0.1-0.5-0.4-0.9-0.4-1.6
				c0-0.5-0.3-1.4-0.4-2.1c-0.1-0.3-0.3-0.7-0.5-1c-0.2,0.2-0.3-0.2-0.5-0.6c-0.3-0.6-0.6-1.1-0.9-1c-0.1,0-0.2-0.2-0.3-0.3
				l-0.4-0.7c-0.2-0.2-0.3-0.5-0.4-0.7s-0.1-0.4-0.3-0.4c-0.2,0-0.4-0.1-0.5-0.1c-0.2,0.1-0.3,0.2-0.4,0.4c-0.1,0.1,0.5,0.6,0.2,0.5
				c-0.1,0-0.3-0.5-0.5-0.8s-0.3-0.6-0.6-0.9c-0.5-0.7-1.2-1.5-1.6-2.2c-0.2-0.4-0.8-1-0.7-1.3c0-0.1-0.1-0.4-0.2-0.4
				c-0.9-0.6-0.7-0.8-0.6-1s-0.2-0.4-0.4-0.6c-0.6-0.3-1.2-0.4-1.8-1.1c-0.8-0.9-1-0.1-1.8-0.9c-0.2-0.2-0.7-0.4-1-0.7
				c-0.6-0.6-1.2-1.2-2.1-1.6c-0.9-0.4-0.9-0.5-0.6-0.8c0.2-0.1,0.2-0.3,0.2-0.5c0-0.1-0.2-0.2-0.3-0.3c-0.1-0.1-0.4-0.1-0.4-0.1
				c-0.1,0.1-0.1,0.3-0.3,0.3c-0.2,0-0.6,0-0.9-0.3c-0.4-0.4-0.8-0.6-1.4-0.7c-0.4-0.1-1.2-0.4-1.4-0.7c-0.1-0.2-0.4-0.3-0.7-0.4
				S63.3,7.1,63.1,7c-0.5-0.6-1-0.2-1.4-0.3c-0.5-0.1-1-0.3-1.4-0.4c-0.5-0.1-0.9-0.3-1.2-0.5c-0.1-0.1-0.4-0.2-0.6-0.3
				c-0.5-0.2-0.8-0.4-0.7-0.6s-0.3-0.2-0.5-0.1c-0.3,0.1-0.6,0.1-1,0.1c-0.4-0.1-0.8-0.1-1.2-0.1s-0.9,0-1.2,0.1
				c-0.2,0.1,0,0.3,0,0.4s0,0.1,0,0.2c-0.2,0.4-0.7,0.9-0.7,1.4c0,0.1-0.1,0.2-0.3,0.2c-0.5-0.1-1.2,0-1.7-0.1
				c-0.4,0-0.8-0.1-1.1-0.1S49.4,7,49.2,7.2c-0.1,0.1-0.6,0-0.8,0c-0.7-0.1-1.6-0.1-2.1,0.2c-0.5,0.2-1,0.2-1.5,0.3
				C44,7.9,44,7.8,44,8.3c0.6,0.3,0.6,0.4-0.1,0.5c-0.5,0.1-1.2,0.4-1.4,0.3C42,9,41.6,9.4,41.2,9.3c-0.2-0.1-0.9,0.1-1.3,0.2
				c-0.3,0-0.5,0.2-0.7,0.3c-0.6,0.3-0.6,0.5-0.8,0.8c-0.1,0.1-0.4,0.5-0.6,0.6c-0.5,0.2-0.6,0.5-0.6,0.7c0.1,0.2-0.2,0.5-0.4,0.8
				c0,0.1-0.1,0.1-0.2,0.2c0.8-0.1,1.5-0.2,2.2-0.4s1.4-0.3,2.2-0.4c0.5,0,0.7,0,0.7,0.2c0,0.1,0,0.2,0,0.3c0.2-0.1,0.4-0.1,0.6-0.1
				c0.7-0.1,1.2-0.4,1.8-0.6c0.5-0.1,1,0,1.4-0.1s0.8-0.4,1.3-0.6c0.2-0.1,0.4-0.1,0.6-0.2c0.5-0.1,1.1-0.1,1.5-0.3
				c0.4-0.1,0.8-0.3,1.2-0.4c0.4-0.1,0.8,0,1.3,0.1c0.1,0,0.3,0,0.4-0.1c0.5-0.1,0.9-0.2,1.4-0.4c1-0.2,1-0.2,1.8-0.1
				c0.7,0.1,1.1,0,1.1-0.3c0-0.2,0.3-0.2,0.6-0.1c0.3,0.1,0.9,0.1,0.8,0.3c-0.2,0.4,0.5,0.4,0.9,0.5c0.3,0.1,0.5,0.1,0.8,0.1
				c0.2,0,0.5,0.1,0.7,0.1c0.1-0.2,0.2-0.3,0.2-0.5c0-0.1-0.2-0.3-0.2-0.4c0-0.1,0.1-0.1,0.2-0.1c0,0.1,0.1,0.1,0.2,0.2
				c0.4,0.4,0.8,0.7,1.2,0.9c0.2,0.1,0.5,0.2,0.8,0.3s0.7,0.2,1.1,0.4c1.8,0.6,3.6,0.9,5.3,2.1l0.1,0.1c0.4,0,0.9,0.4,1.2,0.6
				c0.5,0.4-0.1,0.4-0.1,0.6c0,0,0,0,0,0.1l0.1,0.1c0.1,0,0.2,0.1,0.2,0.1c0.1,0,0.1-0.1,0.1-0.2c0-0.2,0.4-0.1,0.7,0l-0.1,0.4
				c0,0,0,0,0,0.1c0,0.2,0.3,0.4,0.5,0.6c0.6,0.4,0.1-0.1,0.1-0.2c0-0.1,0.1-0.1,0.1-0.1c0-0.1,0-0.2,0-0.3c0.2,0.3,0.6,0.1,0.8,0.6
				c0.2,0.3,0.2,0.3-0.1,0.2c-0.2,0-0.3,0-0.3,0.2c0,0.3,0.3,0.2,0.5,0.3c0.2,0.2,0.4,0.4,0.7,0.6c0.3,0.2,0.3,0,0.3-0.1l0,0
				c0-0.1-0.1-0.1,0,0c-0.1-0.1,0-0.1,0-0.1c0.1,0.1,0.1,0.1,0.1,0.2h-0.1c0.3,0.5,0.6,0.9,0.8,1.2c0.1,0.1,0.2,0.2,0.2,0.3
				c0.5,0.5,0.9,0.9,1.4,1.4c0.4,0.5,0.8,1,1.2,1.5c0.2,0.3,0.6,0.3,0.7,0.7c0.2,0.1,0.5,0.3,0.6,0.2c0.3-0.1,0.3-0.1,0.4,0.2
				c0.5,0.9,1.1,1.3,1.6,1.9c0.2,0.2,0.4,0.3,0.2,0.5c-0.3,0.3-0.3,0.3,0.1,1.2c0.2,0.5,0.4,0.9,0.6,1.3c0.2,0.5,0.6,0.9,0.8,1.4
				c0.2,0.5,0.3,1.1,0.4,1.6c0.1,0.6,0.3,0.5,0.4,0.4c0.1,0,0.1-0.2,0.1-0.3c0.1-0.2,0.2-0.3,0.3,0.1c0.1,0.3,0.3,0.7,0,0.9
				c-0.1,0-0.2,0.2-0.3,0.4c0,0,0,0.3,0,0.4c0.3,0.3-0.1,0.8,0.2,1.2c0.3,0.3,0,0.8,0.2,1.3c0.1,0.3,0.2,0.7,0.2,1.2
				s0.1,0.9,0.1,1.4c0,0.7,0.1,0.7,0.3,0.4c0.2-0.3,0.5,0,0.5-0.9c0.1,0,0.2,0,0.2,0.1c0,0.3,0.1,0.7,0,0.9
				c-0.2,0.4-0.4,0.7-0.6,0.9c-0.1,0.1-0.2-0.2-0.4-0.3c-0.3-0.2-0.4-0.1-0.4,0.7c-0.1,1.4-0.2,1.5,0.4,1.5c0.3,0,0.5,0.3,0.8-0.1
				c0.1-0.1,0.4,0.2,0.3,0.5c-0.2,0.9,0.1,1,0.2,1.2c0.3,0.3,0.2,0.7,0,1.3c-0.1,0.2-0.2,0.4-0.2,0.7c-0.2,0.9-0.3,1.7-0.8,2
				c-0.1,0-0.2,0.5-0.3,0.8c-0.1,0.1-0.2,0.2-0.2,0.2s-0.1-0.2-0.1-0.3c0.2-0.7,0.4-1.3,0.5-2c0.3-1.5,0.2-2.3-0.4-2.6
				c-0.1-0.1-0.3,0-0.3-0.4c0,0-0.2,0.1-0.2,0.2c-0.1,0.4-0.2,1-0.3,1.1c-0.3,0.4,0.1,0.8-0.2,1.2c-0.3,0.4,0,0.7-0.1,1.1
				c-0.1,0.2-0.1,0.5-0.2,0.7c-0.2,0.4-0.4,0.8-0.5,1.3c-0.2,0.5-0.3,0.9-0.4,1.3c-0.3,0.9-0.7,1.8-1.1,2.6s-0.8,1.7-1.3,2.5
				c-0.2,0.4-0.2,0.1-0.2-0.1c0-0.4-0.4,0-0.6,0.2c0.1,0.2-0.1,0.7-0.1,0.8c0,0.3,0.3,0,0.5-0.2l0.1-0.1c0.1,0,0.2-0.1,0.2,0
				c-0.1,0.2-0.1,0.4-0.2,0.6c-0.1,0.1-0.3,0.3-0.3,0.3c-0.2,0.1-0.5,0.2-0.7,0.6c-0.1,0.3-0.2,0.7-0.4,0.8
				c-0.3,0.3-0.3,0.6-0.5,0.8c-0.5,0.6-0.7,1.3-1.2,1.9c-0.3,0.4-0.6,0.9-1,1.3c-0.3,0.4-0.7,1-1,1.2c-0.5,0.3-0.5,0.7-0.8,1.1
				c-0.5,0.5-1,0.8-1.5,1.4c0,0-0.2-0.1-0.3,0c-0.1,0.1-0.4,0.4-0.4,0.4c0.1,0.2,0,0.5-0.4,0.6c-0.5,0.1-0.4,0.8-0.8,0.8
				c-0.2,0-0.4,0-0.5-0.1c-0.2-0.2-0.4,0-0.7,0.3c-0.4,0.4-0.6,0.7-0.6,0.9c0,0.1-0.1,0.2-0.1,0.2c-1.2,0.7-2.3,1.5-3.5,2.3
				c0,0-0.1,0.1-0.1,0c-0.5-0.3-1.2,0.4-1.9,0.8c-0.3,0.2-0.4,0.2-0.6,0.1c-0.2-0.1-0.5,0-0.8,0.4c-0.2,0.2-0.6,0.5-0.9,0.8l0.1,0.4
				c-0.2,0.1-0.5,0.1-0.7,0.2c-0.4,0.2-0.8,0.3-1.1,0.5c-0.1,0.1-0.4,0.1-0.4,0.1c0-0.4-0.6-0.1-1.1,0c-0.2,0-0.4,0-0.4,0.2
				c0,0.4-1,0.6-1.3,0.9c-0.2,0-0.4,0-0.6,0c-0.2,0-0.4,0-0.6,0c-0.2,0-0.6,0.1-0.3-0.2c0.2-0.2,0.3-0.2,0.6-0.2
				c0.2-0.1,0.4-0.3,0.7-0.2c0,0,0.3-0.1,0.4-0.2s0-0.2,0-0.2c-0.4,0-0.6-0.2-1.2,0.1c-0.6-0.2-1.4,0.4-2,0.2
				c-0.2-0.1-0.8,0.1-0.9,0.2c-0.3,0.3-0.8,0-1.2,0.2c-0.2,0.1-0.8,0.1-1.2,0.1c-0.2,0-0.5-0.1-0.7-0.1c-0.5,0-1,0.1-1.4,0
				s-0.8-0.2-1.1-0.4c-0.7-0.1-1.2-0.7-2.2-0.4c-0.3,0.1-0.7-0.1-0.6-0.3c0-0.2-0.7-0.4-0.8-0.3c-0.2,0.2-0.5,0.2-0.6,0
				c-0.2-0.5-1-0.6-1.5-0.8c-0.1-0.1-0.4,0-0.7,0c0.4,0.4,0,0.2-0.3,0.1c-0.1,0-0.2-0.1-0.3-0.1l-0.5-0.3l-0.5-0.3l-1-0.7
				c-0.3-0.2-1-0.6-1.2-0.8c-0.4-0.3-0.8-0.3-1.1-0.6c-0.2-0.2-0.4-0.3-0.6-0.5c-0.2-0.2-0.4-0.4-0.6-0.5c-0.3-0.3-0.6-0.5-0.8-0.8
				c-0.3-0.3-0.5-0.6-0.7-0.8c-0.3-0.4-0.6-0.8-0.9-1.3C30,65,29.7,64.5,29.2,64c-0.4-0.4-0.6-0.8-0.9-1.3c-0.2-0.3-0.3-0.5-0.5-0.8
				c-0.1-0.2-0.3-0.5-0.3-0.7c0-0.3-0.5-0.6-0.5-0.6c0.1-0.2,0-0.4-0.3-0.7S26,59.2,26,58.8c0-0.1-0.2-0.3-0.3-0.4
				c-0.4-0.4-0.5-0.7-0.3-0.9c0.1-0.1,0.3-0.2,0.5-0.3c0.3-0.2,0.3-0.6-0.1-1.2c-0.3-0.5-0.8-1-0.9-1.5c-0.1-0.6-0.4-1.1-0.7-1.5
				c-0.3-0.5-0.1-1-0.5-1.4v-0.2c0.3-0.1,0-0.4,0-0.7c0-0.1,0.1-0.2,0.1-0.2c0.2,0.1,0.4,0.2,0.6,0.4s0.1,0.3,0.1,0.5
				s0.2,0.3,0.4,0.1c0.1-0.1,0.2-0.2,0.3,0.1c0.1,0.2,0.1,0.3,0.2,0.5c0.2,0.2,0.3,0.6,0.5,0.2c0.2-0.3,0.5-0.4,0.2-1.1
				c0-0.1,0-0.3,0-0.4c0.4-0.4,0.1-1.1,0.1-1.7c0-0.9-0.1-1.7,0-2.4c0-0.1,0-0.2,0-0.2c-0.3-0.5-0.5-1-1-1.2c-0.2-0.1-0.4-0.3-0.6,0
				c0,0.1-0.2,0.1-0.3,0.1c-0.1,0-0.2,0-0.2-0.1s0-0.2,0-0.2c0.1-0.2,0.3-0.2,0.3-0.5s0.1-0.7,0.2-1c0-0.1,0-0.2,0-0.3
				c0,0,0-0.2,0-0.4s0-0.4,0-0.4c0.1-0.1,0.2-0.2,0.3-0.3c0.1-0.1,0.2-0.2,0.3-0.2c0.2,0,0.2,0.2,0.3,0.4c0,0.1,0.1,0.1,0.2,0.2
				c0.3,0.2,0.2,0.2,0.5,0.1c0.1,0,0.2-0.1,0.3-0.1c0.3,0.1,0.5,0.1,0.6,0s0.2-0.3,0.4-0.4V42c0.2,0,0.3,0,0.5-0.1
				c0.1-0.1,0.2-0.2,0.4-0.3c0.4,0,0.6-0.1,1-0.2c0.2-0.1,0.3-0.1,0.5-0.2c0.2-0.1,0.4-0.1,0.6-0.2c0.5-0.1,0.8-0.3,1-0.8
				c0.1-0.2,0.3-0.4,0.5-0.6c0.1-0.1,0.4,0,0.4-0.3c0.4-0.1,0.9-0.3,1.2-0.3c0.7,0.1,1.1-0.2,1.5-0.7c0.1-0.1,0.1-0.2,0.2-0.3
				c0.1-0.1,0.2-0.2,0.3-0.2c0.1-0.1,0.2-0.2,0.3-0.3c0-0.3,0.4-0.6,0.8-0.7c0.7-0.2,1-0.5,1.3-0.8c0,0,0,0.1,0-0.4c0,0,0-0.1,0-0.2
				c0.1-0.4,0-0.4-0.6-0.3c-0.3,0-0.6,0.1-0.8,0.1c-0.3-0.1-0.8,0.1-1,0.1c-0.4-0.1-0.5,0.3-0.7,0.2c-0.5-0.1-0.5,0.2-0.7,0.4H34
				c-0.3-0.3-0.5-0.2-0.8,0.2L33,36.2c-0.1,0-0.3-0.1-0.4-0.2v-0.2c0.3-0.2,0.5-0.3,0.8-0.5c0.6-0.2,1.1-0.5,1.4-0.8
				c0.2-0.2,0.3-0.3,0.7-0.5c0.8-0.4,1-0.6,0.8-1.1c0-0.1,0.2-0.4-0.4-0.3c-0.2,0-0.4-0.2-0.7-0.2s-0.7,0.2-1.1,0.2
				c-0.3,0.1-0.7,0.2-0.8,0.2c-0.3-0.2-0.9-0.1-1.5,0c-0.5,0.1-0.9-0.1-1.5,0.2c-0.2-0.3-0.8,0.1-1.1,0.3C29,33.6,29,34,28.5,34.2
				c-0.6,0.3-0.2,0.5-0.5,0.8c-0.4,0.3,0,0.3,0.3,0.3c0.1,0,0.3-0.1,0.5-0.1c0.1,0,0.2,0,0.4,0c-0.1,0.2-0.3,0.4-0.4,0.4
				c-0.7,0.2-0.6,0.4-0.6,0.7c0,0.1,0,0.2-0.1,0.3c-0.4,0.3-0.6,0.7-1,1s-0.5,0.6-1,0.8c-0.4,0.3-0.7,0.3-1.1,0.4
				c-0.3,0.1-0.6,0.2-0.8,0.1c-0.3-0.1-0.8,0.5-1.1,0.2c0,0-0.3,0.4-0.6,0.5c-0.2,0.1-0.4,0.4-0.5,0.6c-0.1,0.2-0.1,0.4-0.3,0.5
				c-0.2,0.1-0.4,0.2-0.6,0.3c0,0-0.1,0.2-0.1,0.3c0.1,0.5-0.2,0.6-0.5,0.9c-0.2,0.3-0.4,0.6-0.6,0.9c-0.3,0.7-0.5,1.5-0.8,2.1
				c-0.2,0.5-0.3,1.1-0.4,1.7c0,0.2-0.1,0.5-0.1,0.7c0,0.1-0.1,0.1-0.2,0c0-0.1-0.1-0.3-0.1-0.4c0-0.3,0.1-0.5,0.2-0.7
				s0.1-0.5,0.2-0.7s-0.1-0.7,0.2-0.8c0.3,0-0.1-0.3,0.1-0.5s0.3-0.7,0.4-1c0.2-0.4,0.1-0.7,0.1-1c0.2-0.7,0.5-1.5,0.4-2.2
				c0-0.1,0.1-0.3,0.2-0.4l0.5-0.3l0.5-0.3c0.3-0.2,0.6-0.4,1-0.5c0.1,0,0.3,0,0.3-0.2c0-0.3,0.2-0.5,0.4-0.8
				c0.2-0.2,0.5-0.5,0.7-0.7c0.4,0,0.4-0.3,0.6-0.5c0.3-0.3,0.6-0.5,0.9-0.8c0.1-0.1,0.2-0.2,0.2-0.3c0-0.3,0.1-0.6,0.1-0.8
				c-0.1-0.2-0.4-0.1-0.8,0.2h-0.1c0,0-0.1-0.1-0.1-0.2c0,0,0.1-0.2,0.2-0.2c0.5-0.3,1.1-0.7,1.5-0.7c0.6-0.1,1.2-0.7,1.7-0.7
				c0.3,0,0.9-0.2,1-0.1c0.3,0.2,0.6,0,0.9-0.2c0.2-0.2,0.2-0.2,0.5-0.2c0.5,0,0.9-0.1,1.4-0.1c0.5,0,0.9-0.1,1.4-0.1
				s1.1-0.2,1.8-0.4c0.2,0,0.4,0,0.5,0c0.5,0,1.1,0,1.7,0c0.5,0,0.9,0.3,1.7-0.1c0.1,0,0.3,0,0.4,0c0.5,0.1,1,0.2,1,0.6
				c0.1,0.3,0.5,0.5,0.8,0.8c0.2,0.1,0.4,0.3,0.5,0.4c0.2,0.3,0.1,0.4-0.6,0.5c-0.1,0-0.2,0-0.4,0c0.4-0.3-0.1-0.2-0.3-0.1
				c-0.2,0.1-0.4,0.3-0.6,0.5c0,0,0.1,0.1,0.3,0.2c0.1,0,0.3,0,0.3,0c0.3-0.4,0.9-0.4,1.4-0.5c0.3-0.1,0.6-0.2,0.7,0
				c0.2,0.3,0.4,0.2,0.8,0c0.2-0.1,0.6-0.1,0.8,0.1c0.4,0.2,0.8,0.5,1,0.8c0.3,0.3,0.8,0.5,1.2,0.7c0.1,0.1,0.2,0.1,0.3,0.2
				c0.1,0,0.2-0.1,0.2-0.2c0-0.3,0.2-0.4,0.6-0.4c0.2,0,0.4,0,0.4-0.2c0-0.1,0-0.2,0-0.4c0,0,0-0.1,0.1-0.1s0.2,0,0.2,0.1
				c0.4,0.2,0.5,0.3,0.8,0.4c0.2,0.1,0.5,0.1,1,0.2c0.1,0,0.3,0.1,0.3,0.2c0.1,0.3,0.4,0.5,0.7,0.8c0.3,0.2,0.5,0.5,0.7,0.8
				c0.1,0.1,0.2,0.3,0.2,0.4s0,0.3,0.1,0.5c0,0.3,0,0.6,0,0.9c0,0.1-0.1,0.2,0,0.2s0.2-0.1,0.3-0.1c0.1-0.1,0.2-0.3,0.3-0.5
				s0.1,0,0.1,0c0,0.1,0,0.2,0.1,0.2c0.1,0.1,0.1,0.2,0.2,0.1c0,0,0.1-0.1,0.2-0.2c0.2-0.2,0.1-0.5,0.3-0.6c0.4-0.2,0.5-0.4,0.4-0.8
				v-0.1c0-0.1,0.1-0.2,0.2-0.2c0.1,0,0.2,0,0.2,0c0.2,0,0.2,0.2,0.2,0.3s0.1,0.2,0.3,0.2v0.1c-0.1,0.2-0.1,0.3-0.1,0.4
				c0,0.1,0,0.2,0,0.3s-0.1,0.2-0.1,0.3s0.1,0.1,0.2,0.1c0,0,0,0.1,0,0.2c0.1,0.2-0.2,0.4-0.1,0.5c0.1,0.1-0.4,0.3-0.2,0.4
				c-0.1,0.1-0.2,0.2-0.2,0.2v0.1c0,0-0.1,0.1-0.2,0.1c0.1,0,0,0.1,0,0.1c0.1,0,0.2,0,0.3,0s0.2-0.1,0.2-0.2
				c0.1-0.1,0.2-0.2,0.2-0.2h0.1h0.1c0,0.1-0.1,0.1-0.1,0.2c0,0,0,0.1,0,0.2c0,0,0,0.1,0,0.2v0.2c0,0,0.1,0.1,0.3,0.2
				c0.1,0.1,0.3,0.1,0.4,0.1c0,0,0.1,0,0.1-0.1c-0.1-0.2,0.1-0.2,0.4-0.2c0.2,0,0.2-0.1,0.2-0.2l-0.1-0.1c-0.1-0.1-0.1-0.3-0.1-0.4
				c0-0.1,0.2-0.2,0.4-0.2c0.2-0.1,0.2-0.2,0.3-0.3c0-0.1,0.1-0.2,0.2-0.3c0.1,0,0.1-0.2,0.2-0.2c0,0,0,0,0-0.1c0-0.2-0.1-0.3,0-0.5
				c0.2-0.2,0-0.3,0-0.5c0,0,0-0.1,0.1-0.2c0,0,0.1,0,0.1,0.1c0,0,0,0.1,0.1,0.1c0.2,0.2-0.1,0.5,0.2,0.7c0.1-0.2,0.2-0.4,0.3-0.6
				c0-0.1,0.1-0.2,0.1-0.3c0.1-0.1,0.1-0.2,0.2-0.2c0.2,0,0.4,0.1,0.4,0.4c0,0.2,0,0.4,0,0.6c0,0.2-0.1,0.4-0.2,0.6
				c-0.1,0.2-0.3,0.3-0.4,0.5c-0.1,0.1-0.1,0.2-0.1,0.3s-0.1,0.2,0,0.4l-0.1,0.1c0,0-0.1,0-0.1,0.1c0,0,0.1,0.1,0.2,0.1
				c0.1,0,0.2,0,0.3,0c0.2,0,0.2,0.2,0.1,0.3c-0.1,0.1-0.2,0.1-0.3,0.2c-0.1,0-0.1,0.1-0.1,0.2c0.2,0.1-0.1,0.3,0,0.4
				c0,0.1,0,0.2,0,0.3s0,0.2,0,0.3c0,0.4,0,0.8,0.2,1.1c0.1,0.2,0.1,0,0.2-0.1l0.2-0.3c0,0.1,0.1,0.3,0.1,0.4c0,0.4-0.2,0.8-0.4,1.2
				c-0.1,0.3-0.2,0.8-0.3,1s-0.2,0.4,0,0.4c0.1,0,0.3-0.2,0.4-0.3c0.1-0.1,0.2-0.3,0.2-0.4c0-0.4,0.2-0.8,0.3-1.1
				c0.1-0.2,0.2-0.4,0.3-0.6c0.1-0.2,0.2-0.4,0.2-0.6c0.1-0.3,0.5-0.3,0.7-0.8c0,0.1,0.1,0.1,0.1,0.2c0.1,0.3,0,0.6-0.2,0.9
				c-0.2,0.2-0.2,0.5-0.3,0.7s-0.1,0.4,0,0.4c0.2,0.2,0.5-0.1,0.7-0.2c0.1-0.1,0.3,0.2,0.4,0.3c0.4,0.2-0.1,0.6-0.1,0.9
				c-0.5,0.3-0.6,1.1-1,1.6c-0.1,0.1-0.2,0.3-0.4,0.6c-0.1,0.2-0.2,0.5-0.3,0.8c-0.1,0.4-0.5,0.8-0.8,1.2c-0.2,0.2-0.3,0.5-0.6,0.7
				c-0.2,0.2-0.5,0.7-0.8,1C55.1,51.9,55,52.5,55,53c0,0.3,0.3,0.5-0.2,1.1c0,0,0,0.1,0.1,0.1c0.3-0.2,0.3,0,0.3,0.3
				c-0.2,1,0.6,0.9,1,1.3c0,0,0.2-0.1,0.2-0.2c0.3-0.4,0.5,0.1,0.8-0.5c0.2,0.1,0.4,0.2,0.5,0.3c0,0,0,0.2,0,0.3
				c0.1,0.3,0.1,0.8,0.4,0.9c0.7,0.1,1.5,0.2,2.7-0.6c0.8-0.5,1.6-1,2.4-1.5c0.6-0.3,1.3-0.9,1.8-0.9c0.6,0,1.4-0.9,2.1-1.3l0.2-0.2
				c0-0.8,0.7-1.1,0.9-1.8c0.3-0.7,0.6-0.9,0.8-0.8c0.1,0,0.2,0.1,0.3,0c0.4-0.5,0.3,0,0.3,0.3c0,0.2,0.1,0.5,0.1,0.4
				c0.2-0.2,0.6-0.8,0.6-0.9c0-0.5,0.2-0.9,0.3-1.3c0.2-0.4,0.4-0.8,0.5-1.2c0.3-0.8,0.7-1.8,1.1-1.7s0.7-0.5,0.9-1.8
				c0.1-0.6,0.3-1.2,0.3-1.8s0.2-1.3,0.1-2c0-0.7,0.2-1.2,0.3-1.8c0.1-0.5,0.2-1,0.3-1.5c0.1-0.5-0.1-1.7,0.4-0.5c0-0.2,0-0.4,0-0.6
				c-0.2-0.7-0.2-1-0.2-1.5c0-0.3-0.1-0.8-0.2-1.3c-0.2-0.6-0.6-1.3-0.8-1.9c-0.2-0.5-0.2-1-0.8-1.6c-0.2-0.2-0.5-1-0.8-1.5
				c-0.6-0.9-1.3-2-1.3-2.4c0-0.5-0.6-1.1-1.2-1.7c-0.3-0.4-0.7-0.7-1-1s-0.7-0.5-1.1-0.9c-2.5-2.2-4.8-4-7.6-5.4
				c-2.4-1.1-4.7-2-7.2-2.5c-1-0.2-2-0.1-2.8-0.3c-0.7-0.2-1.4-0.3-2.2-0.3c-0.7-0.4-1.4,0.1-2-0.1c-1-0.1-1.8-0.1-2.7,0.1
				c-0.3,0.1-0.8,0.1-0.8-0.1v-0.1c-0.3,0.1-0.6,0.2-0.8,0.3c-0.6,0.3-1.1,0.4-1.6,0.4c-0.2,0-0.5,0-0.7,0.1c-0.6,0.2-1,0.3-1.5,0.4
				c-0.9,0.2-0.9,0.2-1.5-0.2c-0.2-0.1-0.4-0.2-0.3-0.3c0.2-0.2,0.6-0.4,1-0.4c0.2,0,0.3-0.1,0.4-0.1c-0.2,0-0.5,0.1-0.7,0.1
				c-0.6,0.1-1.2,0.4-1.6,0.4c-1.3,0.1-2.3,0.6-3.4,0.9c-0.3,0.4-1.4,0.2-1.7,0.6c-0.7,0.2-1.6,0.6-2.2,0.7
				c-0.4,0.1-0.8,0.3-1.2,0.5c-0.4,0.2-0.7,0.4-1.1,0.4c-2.2,1.2-4.6,2.2-6.9,3.7c-0.6,0.4-1.3,0.8-1.9,1.4
				c-0.2,0.2-0.5,0.4-0.8,0.6s-0.7,0.5-1,0.7s-0.6,0.4-0.9,0.6c-0.3,0.2-0.6,0.5-0.8,0.7c-0.5,0.5-1,1-1.5,1.6
				c-0.5,0.7-1.2,1.5-1.9,2.3c-0.3,0.4-0.7,0.8-1.1,1.2c-0.3,0.4-0.8,1.1-0.9,1.2c-0.5,0.4-0.5,0.9-0.8,1.2
				c-0.5,0.7-0.9,1.5-1.3,2.4c-0.4,0.8-0.7,1.7-1.1,2.5c-0.2,0.3-0.1,1.2-0.5,2C3.4,39,3.3,39.8,3.3,40c0,0.8-0.1,1.5-0.2,2.3
				c-0.1,0.8-0.2,1.6-0.2,2.4c0,0.7-0.1,1.4-0.1,2.1c0,0.7,0,1.4,0.1,2.1c-0.1,1.1,0.2,2.1,0.5,3c0.2,0.6,0.3,0.5,0.3,0.2
				c0-0.2,0.1-0.4,0-0.6c-0.2-1.2,0-1.1,0.3-0.5c0.2,0.5,0.5,0.9,0.7,1c0.1,0,0.2-0.7,0.2-1.1c0.1-1,0.5-1,0.5-2.5
				c0,0,0.1,0,0.2,0.1c0.3,1.3,0.7,2,1.2,2.9c0,0,0.1,0.5,0.3,0.9c0.1,0.5,0.3,0.9,0.3,0.9c-0.1,0.7,0.3,1.6,0.6,2.4
				c0.1,0.5,0.6,1.1,0.5,1.6c0,0,0.2,0.5,0.3,0.5c0.4,0.4,0.7,1.1,0.9,1.7c0.3,0.8,0.5,1.6,0.8,2.4c0.3,0.7,0.6,1.4,0.8,2
				c0,0,0.2,0.5,0.4,0.9c0.2,0.5,0.4,0.9,0.4,0.9c0.2,0.6,0.4,1.2,0.7,1.8c0.3,0.6,0.6,1.2,0.9,1.8c0.4,0.9,1.1,1.9,1.4,2.7
				c0.4,1,1.3,1.8,2,2.7c0.2,0.3,0.5,0.7,0.7,0.8c0.2,0.2,0.5,0.2,0.3,0.4c-0.2,0.2-0.1,0.2,0,0.3c0.1,0.1,0.3,0.2,0.5,0.3
				c0.1,0.1,0.3,0.2,0.4,0.3c0.3,0.3,0.6,0.7,0.9,1c0.1,0.2,0.4,0.3,0.5,0.5s0.4,0.4,0.6,0.5c0.4,0.4,0.8,0.8,1.2,1.2
				c0.4,0.4,0.8,0.8,1.2,1.2L24,82c0.1-0.1,0.2-0.1,0.4-0.2c0.2-0.1-0.2-0.5-0.5-0.9c-0.4-0.4-0.8-0.8-1.3-1.3
				c-0.4-0.4-0.8-0.9-1.2-1.3c-0.2-0.3-0.5-0.6-0.8-0.9c-0.2-0.3-0.4-0.6-0.6-0.8l-0.6-0.8c-0.2-0.3-0.4-0.6-0.5-0.8
				c-0.1-0.2-0.3-0.4-0.4-0.5c-0.1-0.2-0.2-0.4-0.2-0.5s0-0.6-0.6-0.8c-0.1,0-0.4-0.4-0.4-0.4c0-0.5-1-1.3-1.1-1.9
				c-0.8-0.7-0.6-1.2-1.1-1.9v-0.2c0.1,0,0.2,0.1,0.3,0.2c0.3,0.4,0.6,0.8,1,1.2c0.3,0.4,0.6,0.9,0.9,1.3c0.5,0.6,1.1,1.2,1.6,1.7
				c0.6,0.7,0.9,0.8,1.5,1.5c0.3,0.3,0.6,0.6,0.9,0.8c0.3,0.3,0.5,0.6,0.8,0.9c0.7,0.3,1,1,1.7,1.4c0.5,0.3,0.9,0.7,1.3,1.1
				c0.9,0.9,1.4,1.3,2,1.7c0.3,0.2,0.6,0.4,1,0.6s0.9,0.4,1.5,0.7c0.3,0.1,0.6,0.3,0.9,0.4c0.8,0.4,1.6,0.7,2.5,1.1
				c0.6,0.2,1.2,0.4,1.8,0.5c0.5,0.1,1,0.6,1.7,0.5c0.2-0.1,0.9,0.5,1.5,0.4c0,0,0.3,0.1,0.4,0.1c1.1,0.3,1.9,0.5,2.7,0.6
				s1.6,0.1,2.5,0.1c0.4,0,1.2,0,1.4,0.1c0.7,0.2,1.5,0.2,2.2,0.1c0.8,0,1.5,0,2.2,0c0.9,0,2.3,0,3-0.2c1.6-0.5,3.1-0.7,4.6-1.1
				c0.5-0.2,1-0.3,1.5-0.4s1-0.2,1.5-0.3c0.7-0.2,1.5-0.3,2.2-0.6c0.7-0.2,1.4-0.5,2.2-0.9c0.5-0.3,0.6-0.2,0.6-0.1s0.1,0.2,0.1,0.2
				s0.1,0,0.2,0c0.1-0.1,0.2-0.2,0.3-0.2c0.2-0.2,0.2-0.4,0.4-0.6c0.1-0.1,0.4-0.3,0.5-0.4c0.9-0.3,1.7-0.9,2.5-1.4
				c0.2-0.1,0.7-0.4,0.7-0.4c0.3,0.2,1.1-0.4,1.7-0.7c0.1-0.1,0.3-0.2,0.4-0.2c0.2-0.2,0.4-0.5,0.7-0.7c0.3-0.2,0.7-0.5,1-0.7
				c0.4-0.3,0.5-0.5,0.3-0.6l-0.1-0.1c0.1-0.3-0.2-0.6,0.2-1c0.4-0.5,0.9-0.6,1.4-0.9c0.3-0.2,0.8-0.5,0.9-0.6
				c0.4-0.7,1.2-1.5,1.1-2c0-0.2,0-0.4,0-0.6c0-0.1,0.1-0.3,0.2-0.4c1.1-1.2,2.2-2.6,3.2-2.8c0.6-0.2,0.5-0.6,0.5-0.7
				c-0.1-0.8,0.7-2.2,0.3-2.8c0.5-1,0.3-1.4,0.3-2.1c-0.2,0.3-0.4,0.7-0.6,0.6c-0.2-0.2-0.4-0.5-0.9-0.2c0,0.1-0.2,0.4-0.1,0.4
				c0.1,0.1,0,0.5-0.2,0.6c-1.2,0.8-1.1,1.7-1.7,2.6c-0.1,0.1,0,0.2,0,0.3c-0.1,0-0.2,0-0.3,0.1c-0.9,0.3-1,0.5-1.5,1.6
				c-0.1,0.1-0.1,0.2-0.1,0.3c-0.5,0.4-0.3,0.9-0.9,1.2c-0.4,0.2-0.2-0.3-0.2-0.6c0-0.1,0-0.3,0.1-0.4c0.3-0.5,0.1-0.7-0.1-0.6
				c-0.5,0.1-0.6-0.2-0.9-0.3c-0.1-0.1-0.2,0-0.4,0.1c-0.1,0-0.2,0.1-0.3,0.1c0,0.1-0.1,0.2-0.1,0.2c0.5-0.1-0.3,1.1,0.6,0.6
				c-0.1,0.3-0.1,0.7-0.3,1c-0.6,0.8-1.3,1.5-2.1,2.2c-0.4,0.3-0.9,0.7-1.4,1c-0.4,0.2-0.7,1-1.1,0.8c-0.1,0.2-0.3,0.3-0.4,0.5
				s-0.1,0.4-0.1,0.6c0,0.1-0.1,0.2-0.2,0.3c-0.1,0-0.2,0.1-0.2,0c-0.1,0-0.1-0.1-0.1-0.2C68,75,67.8,75,66.7,75.7
				c-0.4,0.3-0.8,0.5-1.1,0.5c-0.2,0-0.6,0.1-0.7,0.2c-0.3,0.2-0.6,0.5-0.6,0.7c0,0.3-0.5,0.5-0.8,0.7c-0.4,0.3-0.6,0.6-0.9,0.9
				c-0.1,0.1-0.4,0.2-0.4,0.2c-0.6-0.3-1.2,0.3-1.8,0.7c-0.1,0.1-0.3,0.1-0.5,0.1c-0.4,0.1-0.2-0.1,0-0.2c0.3-0.3,0.5-0.6,0.8-0.9
				s1-0.8,0.1-0.7c0.2-0.2,0.8-0.4,0.7-0.6c0,0,0.1-0.1,0.2-0.2c0.1-0.1,0.3-0.2,0.4-0.2c0.4-0.2,0.8-0.4,1.2-0.6s0.7-0.5,1.1-0.8
				c0.5-0.4,0.7-0.9,0.3-0.9c-0.3,0-0.4-0.2-1,0.1c-0.2,0.1-0.4,0.1-0.5,0.1c-0.2-0.2-0.3-0.3-0.3-0.6c0-0.1,0.1-0.4,0.3-0.6
				s0.4-0.3,0.7-0.5s0.5-0.4,0.7-0.5c0.4-0.2,0.8-0.4,1.2-0.6c0.3-0.2,0.7-0.2,1-0.4c0.2-0.1,0.5-0.3,0.7-0.5c0.3-0.2,0-0.5,0.6-0.7
				c0.4-0.1,0.5-0.7,0.9-0.7c0.5-0.8,0.9-0.8,1.2-0.8c0.2,0,0.4,0,0.5,0.1c0.2,0.1,0.2,0.3,0.4,0.4c0.1,0,0.2,0,0.3,0
				c0-0.1,0-0.2,0-0.2c-0.3-0.1-0.1-0.6,0.1-1c0.2-0.3,0.4-0.7,0.6-1.1c0.4-0.7,1.2-1.4,1.6-1.4c0.6-0.1,1.2-0.8,1.7-1.4
				c0-0.3,0.5-0.5,0.6-1c0.1-0.2,0.6-0.8,0.9-1.2s0.4-0.7,0.6-1c0.2-0.5,0.5-1,0.8-1.4s0.7-0.8,1-1.2c0.5-0.3,0.5-0.7,0.6-1.1
				c0.2-0.8,0.7-1.8,1.2-2.2c0.4,0.3,0.9-1.5,1.3-1.3c0.1-0.2,0.2-0.4,0.2-0.5c0-0.2-0.1-0.3-0.2-0.4c0.4-0.3,0.3-0.4,0.1-0.6
				c-0.1-0.1,0.3-2,0.4-2c0.3-0.3,0,0.7,0.2,0.7c0.1,0,0.2,0,0.2,0.1c0.3,0.2,0.7,0.1,0.8,0.7c0,0.2,0.2,0.3,0.5-0.3
				c0.4-1,0.8-0.6,1.2-1.5c0.1-0.1,0.2-0.2,0.3-0.2c0.1,0,0.1,0.1,0.1,0.1c0.1,0.1,0.2,0.3,0.4,0.1c0.4-0.4,0.4,0,0.7-0.1
				c0.3-0.8,0.7-1.4,1-1c0,0,0,0,0.1,0s0.2-0.1,0.2-0.2c0.1-0.2,0.1-0.6,0.1-0.7c-0.1-0.2-0.2-0.2-0.3-0.5c-0.2-0.6-0.8-0.2-0.4-1.9
				c0-0.1,0-0.3-0.1-0.3c-0.1-0.1-0.3-0.1-0.6-0.1c0,0,0,0,0.1,0c0,0,0,0.1,0,0.2c-0.1,0.1-0.1,0.2-0.2,0.2c-0.2,0-0.3,0-0.4-0.1
				c-0.1,0-0.1-0.1-0.2-0.2c0.1-0.1,0.2-0.1,0.3-0.2c0.1,0,0.1,0,0.3,0.1c-0.1,0,0,0,0,0c0.3-1,0.6-1.7,0.9-2.4s0.5-0.3,0.7-0.3h0.1
				c0.3,0.3,0.2-0.9,0.5-1c0-0.3,0-0.8-0.1-0.9c-0.4-0.2-0.2-1.4-0.4-1.9L89,38z M59.8,43.3C59.8,43.3,59.9,43.2,59.8,43.3
				c0.1,0,0.1,0.1,0.2,0.2c0,0-0.1,0-0.2,0.1C59.8,43.5,59.8,43.4,59.8,43.3L59.8,43.3z M5.5,46.8c0,0-0.1-0.1-0.1-0.2
				c0-0.1,0-0.1,0.1-0.2c0,0.1,0.1,0.1,0.1,0.2S5.5,46.8,5.5,46.8z M19,51.1c0.1,0.2,0.1,0.5,0.2,0.8c0,0.3,0.1,0.5,0,0.5
				c-0.2-0.2-0.5-0.5-0.6-0.8c-0.1-0.1,0-0.5,0.1-0.8C18.9,51,19,51,19,51.1L19,51.1z M18.3,48.2c0.1,0,0.1,0,0.2,0l0.1,0.2
				c0,0.2,0,0.4-0.1,0.5c-0.1,0.3-0.1,0.6,0.2,0.9c0,0,0.1,0.4,0.1,0.5s-0.2,0.1-0.3,0.1c0,0-0.1-0.1-0.1-0.2c0-0.1,0-0.2,0-0.2
				C18,49.3,18.3,48.8,18.3,48.2z M12.5,43.3c0,0,0.1,0.1,0.1,0.2l-0.1,0.1l-0.1-0.1C12.4,43.4,12.5,43.4,12.5,43.3L12.5,43.3z
				 M22.5,70.8c0,0-0.1,0-0.2,0s-0.2-0.1-0.2-0.2c-0.4-0.7-1.1-1.4-1.5-2.1c-0.3-0.5-0.6-0.6-0.9-0.9c-0.2-0.3-0.5-0.7-0.6-1
				c-0.2-0.5-0.5-0.8-0.9-1.1c0,0-0.1-0.2-0.2-0.4c-0.5-1-1.2-2-1.7-3c-0.2-0.5-0.6-1.1-1.1-1.7c-0.5-0.6-1-1.5-1.1-2.5
				c-0.1-0.5-0.4-1.3-0.7-2c-0.2-0.8-0.6-1.7-0.7-2.3c0-0.7-0.4-0.8-0.4-1.3c-0.1-0.4-0.1-0.8-0.2-1.2c0-0.1-0.2-0.4-0.2-0.4
				c0.1-0.3,0-0.7-0.1-1.1c-0.1-0.4-0.1-0.8-0.1-1.2c0.1-0.4,0-0.8-0.1-1.3s0.1-1.4,0.3-1.1c0.4,0.6,0.3-0.1,0.4-0.6
				c0-0.2,0-0.5,0-0.8c0-0.1,0.1-0.1,0.1-0.2v0.1c0,0.3,0,0.7,0,1c0,0.8,0.1,1.5-0.3,1.7c0,0,0,0.4,0,0.6c0.1,0,0.2,0,0.3,0
				s0.1-0.1,0.1-0.2c0,0.1,0.1,0.3,0.1,0.4c0,0.4-0.1,0.7,0,1c0.1,0.4-0.2,0.5,0.1,1c0.1,0.2-0.1,0.6,0.2,0.8c0,0.3,0.1,0.8,0.1,1
				c-0.1,0.6,0.1,1.2,0.3,1.9c0.2,0.6,0.4,1.2,0.5,1.8c0.1,0.5,0.4,1,0.6,1.6c0.1,0.6,0.7,1.4,0.8,1.9c0.2,0.7,0.5,1.1,0.9,1.5
				c0.1,0.7,0.9,1.1,1,1.7c0.1,0.6,0.9,1.3,0.9,1.9c0,0.3,0.4,0.3,0.6,0.7c0.7,1.4,1.8,2.8,2.9,4c0.3,0.3,0.6,0.7,0.8,1
				c0.2,0.3,0.2,0.5,0.3,0.7C22.5,70.4,22.5,70.6,22.5,70.8L22.5,70.8z M36.5,80.8L36.5,80.8c-0.3,0-0.4,0-0.5,0l-0.3-0.2L35,80.3
				c-0.1,0-0.2,0-0.4,0.1c-0.1,0-0.2,0.1-0.3,0.1c0.1,0,0.2,0,0.3-0.1c0.1,0,0.1,0,0.2,0c0,0-0.1-0.1-0.2-0.1c-0.8,0-1-0.1-1-0.2
				c-0.3-0.4-1.2-0.5-1.4-0.7c-0.5-0.4-0.9-0.4-1.3-0.6c-1.1-0.6-2.1-1.3-3.1-2c-0.1-0.1-0.2-0.3-0.2-0.4s0-0.2,0-0.3
				c0-0.1,0-0.2,0.1-0.3c0.2,0.2,0.4,0.3,0.6,0.4c0.4,0.4,0.9,0.7,1.4,1c0.2,0.2,0.5,0.3,0.7,0.5c0.2,0.1,0.5,0.3,0.8,0.4
				c1.2,0.7,2.5,1.2,3.3,2c0.1,0.1,0.2,0.1,0.4,0.2c0.1,0,0.1,0,0.2,0l0.2,0.1c0.2,0,0.3,0,0.4,0l0.3,0.2l0.7,0.2
				C36.4,80.8,36.5,80.8,36.5,80.8L36.5,80.8c0.1-0.1,0.2-0.1,0.3-0.1c0,0,0.1,0.1,0,0.1C36.8,80.9,36.6,80.8,36.5,80.8L36.5,80.8z
				 M40.5,82.3c-0.4-0.3-1.3-0.3-1.7-0.5s-0.5-0.2-0.8-0.2c-0.1,0-0.6-0.2-0.6-0.2c-0.1-0.2,0.2-0.2,0.6,0c0.3,0.1,0.6,0.2,0.9,0.2
				H39c0.6,0.2,1.3,0.4,1.9,0.6c0.1,0,0.2,0.1,0.3,0.2L40.5,82.3L40.5,82.3z M39.5,79.9c-0.1,0-0.4-0.1-0.4-0.2
				c0-0.2,0.1-0.3-0.3-0.6c0.3,0,0.6,0,1,0c0.1,0,0.4,0.2,0.5,0.3c0.3,0.2,1.2,0.3,1.2,0.6C40.8,80,40.2,79.9,39.5,79.9z M42.7,82.4
				C42.7,82.4,42.6,82.4,42.7,82.4c0-0.1,0.1-0.1,0.2-0.1s0.1,0.1,0.2,0.1C42.9,82.4,42.8,82.4,42.7,82.4L42.7,82.4z M52.4,80.6
				c0,0-0.1-0.1-0.3-0.2c0.1,0,0.2-0.1,0.3-0.1l0.2,0.1C52.6,80.5,52.5,80.5,52.4,80.6z M54.8,81.1L54.8,81.1L54.8,81.1L54.8,81.1
				c-0.2,0-0.4,0.1-0.9,0.2c0.1-0.1,0.2-0.1,0.2-0.2c-0.4,0.1-0.5,0-0.4,0c0.1-0.1,0.3-0.2,0.5-0.2c0,0,0.2,0,0.3,0
				c-0.1,0.1-0.2,0.2-0.3,0.2c0.1,0,0.3-0.1,0.5-0.1c0,0,0,0-0.1,0l0.2-0.1H55C54.9,80.9,54.8,81,54.8,81.1
				C54.7,81.1,54.7,81.1,54.8,81.1z M59.2,78.5c-0.1,0-0.2,0-0.3,0.1l0.1-0.1C59.1,78.5,59.2,78.5,59.2,78.5
				C59.3,78.4,59.3,78.4,59.2,78.5z M67.1,79.7c0.1-0.2,0.2-0.4,0.4-0.6c0.1-0.1,0.4-0.2,0.4-0.2c0.9-0.6,1.6-0.9,2.2-1
				c0.5-0.1,0.1,0.3-0.1,0.4c-0.9,0.8-1.9,1.3-2.8,1.5C67.1,79.9,67.1,79.8,67.1,79.7L67.1,79.7z M60.8,72.1L60.8,72.1
				c0-0.1,0-0.1,0.1-0.2H61L60.8,72.1L60.8,72.1z M83.1,49.2c-0.1,0-0.1-0.1-0.2-0.1l0.1-0.2c0.1,0,0.1,0,0.2,0.1
				C83.2,48.9,83.2,49.1,83.1,49.2L83.1,49.2z"/>
			<path class="st0" d="M87.2,44.5L87.2,44.5L87.2,44.5z"/>
			<path class="st0" d="M76.4,7.8c0.3,0.3,0.6,0.5,0.8,0.8c0.3,0.2,0.7,0.5,1.1,0.6c0,0,0-0.2-0.1-0.4S78.1,8.5,78,8.2
				c-0.5-0.9-0.5-0.9-0.4-1.1c0-0.1,0.1-0.1,0.1-0.2c-0.6-1-0.2-1.2,0.1-1.6C77.9,5.2,77.9,5,78,4.8c-0.7-0.4-0.8-0.1-1.1-0.3
				C76,4,75.8,4.1,75.4,4.1c-0.1,0-0.4-0.1-0.5-0.2c-0.7-0.5-1.2-0.6-1.7-0.7c-0.1,0-0.5-0.2-0.6-0.3s-0.1-0.2-0.1-0.3
				c0.2-0.1,0.4,0,0.6-0.1c0.1,0,0-0.2,0-0.3c-0.2,0-0.3-0.1-0.5-0.1c-1.3-0.3-1.6,0-1.7,0.5c-0.1,0.2-0.2,0.4-0.3,0.6
				c0,0.1,0,0.2,0.2,0.4c0.3,0.3,0.8,0.8,1,0.8c0.5,0.2,0.8,0.4,1.1,0.6c0.3,0.2,0.5,0.4,0.8,0.7c0.7,0.5,1.3,0.9,2,1.4L76.4,7.8
				L76.4,7.8z"/>
			<path class="st0" d="M90.2,30c0.1,0.5,0.4,1,0.4,1.8c0,0.6,0.2,1.5,0.3,2.3c0.1,0.9,0.1,1.7,0.2,2.6c0,0.5,0.3,0.9,0.5,0.8
				c0.2-0.1,0.1-0.6,0.1-1s-0.1-0.8,0-1.2c0-0.7,0-1.4,0-2.2c0.2-0.1,0.3-0.5,0.3-1s0-1.1,0-1.5c0-0.5,0.1-0.8,0-1.2
				c0-0.3-0.1-0.6-0.2-0.9c-0.2-0.6-0.4-1.1-0.9-1.8c-0.1-0.1-0.2-0.4-0.3-0.4c-0.5-0.1-0.9-1.2-1.4-2.1C89.1,24,89,23.8,89,23.8
				c-0.1-0.1-0.3-0.1-0.2-0.1c0.1,0.6,0.2,1.3,0.4,2c0.2,0.7,0.7,1.5,0.6,2.1C90.2,28.4,90,29.2,90.2,30L90.2,30z"/>
			<path class="st0" d="M92.5,41.3c-0.2-0.2-0.4-0.1-0.6,0.5c-0.2,0.8-0.6,1.5-0.8,2.3c-0.2,0.5-0.3,0.8-0.5,1.1
				c-0.8,1-0.8,1-0.8,2.8c0,0.2-0.1,0.4-0.1,0.6c0,0.1,0.1,0.1,0.1,0.1h0.1c0.3-1,0.4-0.6,0.7-0.7c0.4-0.2,0.8-0.4,1.1-1.9
				c0.2-0.9,0.3-2.1,0.7-3C92.7,42.5,92.7,41.5,92.5,41.3z"/>
			<path class="st0" d="M81.6,18c-0.1-0.1-0.2-0.3-0.3-0.3c-0.4-0.4-0.6-0.3-0.8-0.1c-0.1,0.1-0.1,0.4-0.5,0c-0.6-0.6-0.8-0.5-1-0.3
				c-0.2,0.1-0.1,0.5-0.6,0.1c0.4,0.6-0.7-0.1-0.3,0.4c0.3,0.4,0.8,0.9,1.2,1.4c0.1,0.1,0.2,0.1,0.4,0.2c0.1,0.1,0.2,0.2,0.3,0.3
				c0.2,0.5,0.6,0.7,0.8,0.7c0.1,0,0.4,0.1,0.6,0.2s0.3,0,0.2-0.3c-0.2-0.9-0.2-1.5,0.1-1.9C81.6,18.2,81.6,18.1,81.6,18z"/>
			<path class="st0" d="M65.2,6.5C65,6.7,64.9,7,64.8,7.3c0,0.1,0.1,0.2,0.2,0.2c0.8,0.3,1.8,0.9,2.3,0.6c0,0-0.1-0.1,0,0
				c-0.1-0.1,0-0.1,0-0.1c0.1,0.1,0.1,0.1,0.2,0.2h-0.1c0.4,0.2,0.8,0.4,1.1,0.6c0.8,0.4,0.8,0,1.3,0.1c0.6,0.1-0.2-0.4,0-0.5
				c-0.1-0.1-0.3-0.3-0.4-0.3c-0.7-0.3-1.5-0.7-2.2-0.9C66.9,7,66.7,7,66.4,6.8C65.9,6.4,65.3,6.3,65.2,6.5L65.2,6.5z"/>
			<path class="st0" d="M67.3,8.2L67.3,8.2l0.1,0.1C67.5,8.3,67.4,8.2,67.3,8.2C67.4,8.2,67.4,8.2,67.3,8.2z"/>
			<path class="st0" d="M84.7,17.1c0.1,0.1,0.2,0.3,0.3,0.4c0.1,0.1,0.3,0.3,0.4,0.4c0.1,0.6,0.5,0.6,0.8,1.1
				c0.4,0.7,0.9,0.8,0.6,0.1c-0.3-0.6-0.2-0.6-0.2-0.8c0-0.1-0.1-0.4-0.2-0.6c-0.2-0.4-0.4-0.8-0.6-1c-0.1-0.3-0.2-0.5-0.3-0.7
				c-0.1-0.4,0-0.6,0.2-0.8c0.1,0,0-0.2,0-0.3c-0.2-0.1-0.3-0.2-0.4-0.3c-0.6-0.1-1,0.2-1.9-0.5c0,0,0,0-0.1,0.1c0,0,0,0,0,0.1
				c0.3,0.7,0.4,1.2,0.7,1.8C84.3,16.5,84.5,16.8,84.7,17.1L84.7,17.1z"/>
			<path class="st0" d="M86.9,53.1c-0.1-0.4-0.3-0.7-0.5-1c0,0-0.1,0-0.2,0.1c-0.2,0.3-0.4,0.6-0.5,0.9c-0.1,0.3-0.2,0.7-0.2,0.9
				c0,0.4,0.1,0.8,0.2,1s0,0.4-0.1,0.7c-0.1,0.2-0.2,0.5-0.2,0.5c0.1,0.5,0.2,0.9,0.3,1.3c0.2-0.1,0.3-0.1,0.3-0.1
				c0-0.2,0.1-0.4,0.1-0.6c0-0.9,0.1-1.4,0.7-2.5c0.1-0.2,0.1-0.6,0.1-0.6C86.9,53.7,86.9,53.3,86.9,53.1L86.9,53.1z"/>
			<path class="st0" d="M73.4,11.6C73,11.3,72.5,11.2,72,11c-0.3-0.1-0.7-0.5-0.8-0.2c-0.1,0.2-0.3,0.2,0.1,0.6
				c0.4,0.4,0.9,0.9,1.1,1.1c0.6,0.4,0.9,0.6,1.1,0.7c0.2,0.1,0.4,0.1,0.5,0c0.3-0.2,0.1-0.8,0.9-0.5c-0.1-0.1-0.1-0.3-0.2-0.4
				c-0.1-0.1-0.2-0.2-0.3-0.2C74,11.6,74.2,12.2,73.4,11.6L73.4,11.6z"/>
			<path class="st0" d="M40.8,38.7c-0.4,0-0.9,0-1.3,0.1l0,0c-0.2,0-0.3,0-0.5,0.1c-0.1,0-0.2,0.1-0.3,0.2c0,0,0.1,0.1,0.2,0.1
				c0.4,0.1,0.8,0.2,1.2,0.3c0.3,0,0.6,0,0.9,0c0.1,0,0.2-0.1,0.2-0.1c0-0.1,0-0.2,0-0.3C41.3,38.8,41.2,38.7,40.8,38.7L40.8,38.7z"
				/>
			<path class="st0" d="M40,71.5c-0.6-0.3-1.2-0.8-1.9-1.1c-0.3-0.2-0.4-0.1-0.5-0.1s-0.1,0.2-0.1,0.2c0.1,0.1,0.3,0.3,0.5,0.4
				c0.3,0.2,0.7,0.4,1,0.6s0.6,0.3,0.7,0.4c0.5,0.1,0.6,0.2,0.8,0.2c0.1,0,0.2,0,0.3-0.1c0,0,0-0.1-0.1-0.2
				C40.5,71.7,40.3,71.6,40,71.5L40,71.5z"/>
			<path class="st0" d="M33.2,66.2c0,0-0.2-0.2-0.3-0.1s-0.2,0.2-0.1,0.3c0.2,0.4,0.3,0.8,0.7,1.2l0.2,0.2c0.2-0.2,0.2-0.4,0.2-0.7
				C33.9,66.7,33.8,66.5,33.2,66.2L33.2,66.2z"/>
			<path class="st0" d="M85.4,57.6c-0.1-0.1-0.3-0.2-0.4-0.2c0,0-0.1,0.1-0.2,0.1c0,0.1-0.1,0.3-0.1,0.3c0.2,0.4-0.1,1.5,0.7,0.8
				c0.2-0.2,0.1,0.4,0.4-0.1c0.1-0.1,0-0.5-0.1-0.6C85.8,57.7,85.6,57.7,85.4,57.6L85.4,57.6z"/>
			<path class="st0" d="M55.2,72.1c-0.4-0.2-1,0.4-1.4,0.3c0,0-0.3,0.2-0.4,0.3s-0.2,0.2-0.1,0.3c0.1,0.1,0.4,0.1,0.5,0.1
				c0.6-0.3,1-0.6,1.5-0.8C55.3,72.2,55.3,72.2,55.2,72.1L55.2,72.1z"/>
			<path class="st0" d="M81.9,60.2c-0.1,0.2-0.2,0.5-0.2,0.6c0,0.4,0,0.7,0.1,1c0,0.1,0,0.3,0,0.4C81.9,62.1,82,62,82,62
				c0.2-0.6,0.1-0.9,0.3-1.6c0.1-0.1,0.1-0.3,0-0.3C82.2,60.1,82.1,60.2,81.9,60.2L81.9,60.2z"/>
			<path class="st0" d="M59.3,72c-0.1,0-0.4,0.1-0.7,0.1c-0.1,0.1-0.1,0.3-0.2,0.3c0.2,0.1,0,0.4,0.5,0.2c0.2-0.1,0.4-0.2,0.6-0.3
				C59.5,72.2,59.4,72,59.3,72L59.3,72z"/>
			<path class="st0" d="M82.4,35.3c0.2,0,0.2,0,0.3,0c0.1,0,0.1-0.1,0.2-0.2c-0.1-0.1-0.1-0.3-0.2-0.3c-0.2-0.1-0.4-0.1-0.6-0.2
				c-0.1,0-0.2-0.4-0.2-0.1c0,0.1,0.1,0.5,0.2,0.5C82.2,35.2,82.4,35.3,82.4,35.3L82.4,35.3z"/>
			<path class="st0" d="M62.8,77.1c0,0-0.4,0.2-0.4,0.3c-0.1,0.2-0.1,0.3-0.1,0.4c0.1,0.1,0.2,0.1,0.2,0.1c0.2-0.1,0.3-0.3,0.5-0.4
				c0.2-0.2,0.4-0.4,0.4-0.4C63.3,77.1,63,77.1,62.8,77.1L62.8,77.1z"/>
			<path class="st0" d="M56,71.6l0.9,0.1c0.1-0.1,0.4-0.4,0.3-0.4c-0.1-0.1-0.4-0.1-0.7-0.2C56.2,71.3,56.1,71.5,56,71.6L56,71.6z"
				/>
			<path class="st0" d="M53.4,38.5h-0.2h-0.1c-0.1,0.1-0.1,0.2-0.2,0.3v0.1c0.1,0,0.1,0,0.2-0.1C53.1,38.8,53.2,38.7,53.4,38.5
				C53.3,38.6,53.3,38.5,53.4,38.5L53.4,38.5z"/>
			<path class="st0" d="M76,65.5c-0.1,0-0.2,0-0.2-0.1c-0.1,0.1-0.1,0.2-0.2,0.4c-0.1,0.1-0.1,0.3-0.2,0.4c-0.2,0.5,0.1,0.2,0.3-0.1
				C76.3,65.7,76.3,65.7,76,65.5L76,65.5L76,65.5z"/>
			<path class="st0" d="M81.2,12.2c0.1-0.1-0.1-0.4-0.2-0.6c-0.1-0.1-0.3-0.1-0.4-0.1c0,0.2,0,0.4,0.1,0.6
				C80.8,12.1,81.1,12.2,81.2,12.2z"/>
			<path class="st0" d="M68.5,0.1c-0.3,0-0.6-0.1-0.8-0.1l0.6,0.4c0.1-0.1,0.3-0.1,0.4-0.2C68.7,0.3,68.6,0.2,68.5,0.1z"/>
			<path class="st0" d="M87.2,12.4c0-0.1,0-0.2,0-0.3c-0.2-0.2-0.3-0.3-0.4-0.4l0.2,0.7C87.1,12.4,87.2,12.5,87.2,12.4z"/>
			<path class="st0" d="M78.9,62.2c0,0,0.1,0,0.2,0.1c0.1-0.1,0.1-0.3,0.1-0.3c-0.1,0-0.2,0-0.2,0C79,62.1,78.9,62.2,78.9,62.2
				L78.9,62.2z"/>
			<path class="st0" d="M80.3,62.2c-0.3,0.5,0,0.4,0,0.5C80.6,62.2,80.3,62.3,80.3,62.2z"/>
			<path class="st0" d="M84.3,57.5c-0.1,0.1-0.1,0.2-0.1,0.4c0.1-0.1,0.1-0.2,0.3-0.5c0,0,0-0.1,0-0.2
				C84.5,57.3,84.4,57.4,84.3,57.5L84.3,57.5z"/>
			<path class="st0" d="M52.9,5.7c0-0.2-0.5-0.1-0.8-0.2C52.1,5.8,52.6,5.7,52.9,5.7z"/>
			<path class="st0" d="M52.8,72.9c-0.1,0-0.2,0.1-0.2,0.1c0,0.1,0.1,0.1,0.1,0.2c0.1-0.1,0.2-0.1,0.2-0.1
				C52.9,73,52.8,72.9,52.8,72.9L52.8,72.9z"/>
			<path class="st0" d="M49.3,73c0,0.1,0,0.1,0,0.2c0.1,0,0.2,0,0.2,0c0-0.1,0-0.1,0-0.2H49.3z"/>
			<path class="st0" d="M44.7,72.5c-0.1,0-0.2,0-0.3,0.1c0.1,0.1,0.1,0.2,0.2,0.2c0.1,0,0.2-0.1,0.2-0.1
				C44.8,72.6,44.7,72.6,44.7,72.5L44.7,72.5z"/>
			<path class="st0" d="M86.1,10.8c0-0.1,0-0.2,0-0.3c-0.1,0-0.2-0.1-0.3-0.1c0,0.1,0.1,0.2,0.1,0.3C85.9,10.7,86.1,10.8,86.1,10.8z
				"/>
			<path class="st0" d="M43.7,8.5l0.2-0.1V8.3C43.8,8.3,43.7,8.4,43.7,8.5C43.6,8.4,43.6,8.5,43.7,8.5z"/>
			<path class="st0" d="M80.3,61.9l-0.1,0.2h0.1C80.4,62,80.4,61.9,80.3,61.9C80.4,61.9,80.3,61.9,80.3,61.9z"/>
			<path class="st0" d="M87.2,49.7L87.2,49.7l0.1-0.3L87.2,49.7C87.2,49.5,87.2,49.6,87.2,49.7L87.2,49.7z"/>
			<path class="st0" d="M25.2,53.8C25.2,53.8,25.3,53.9,25.2,53.8c0.1,0,0.1,0,0.1-0.1l-0.1-0.1C25.3,53.7,25.2,53.8,25.2,53.8
				L25.2,53.8z"/>
			<path class="st0" d="M53,5.8h0.2H53l-0.2-0.1C52.9,5.7,52.9,5.8,53,5.8L53,5.8z"/>
			<path class="st0" d="M51.7,5.4l0.2,0.1l0.2-0.1c-0.1,0-0.2-0.1-0.2-0.1C51.8,5.4,51.8,5.4,51.7,5.4L51.7,5.4z"/>
			<path class="st0" d="M70.1,8.4l-0.2-0.1L70,8.5C70.1,8.5,70.2,8.5,70.1,8.4C70.2,8.5,70.2,8.4,70.1,8.4z"/>
			<path class="st0" d="M64.5,58.7C64.5,58.7,64.6,58.7,64.5,58.7c0.1-0.2,0.2-0.3,0.2-0.3s-0.1,0-0.1,0.1S64.6,58.6,64.5,58.7
				L64.5,58.7z"/>
			<path class="st0" d="M45.5,42.5L45.5,42.5L45.5,42.5z"/>
			<path class="st0" d="M45.9,41.8L45.9,41.8L45.9,41.8z"/>
			<path class="st0" d="M45.6,42.5L45.6,42.5L45.6,42.5z"/>
			<path class="st0" d="M45.7,42.1L45.7,42.1L45.7,42.1z"/>
			<path class="st0" d="M45.7,42.1L45.7,42.1L45.7,42.1L45.7,42.1L45.7,42.1L45.7,42.1z"/>
			<path class="st0" d="M45.6,42.5L45.6,42.5L45.6,42.5z"/>
			<path class="st0" d="M45.7,42.5L45.7,42.5C45.6,42.5,45.7,42.5,45.7,42.5L45.7,42.5L45.7,42.5z"/>
			<path class="st0" d="M45.6,42.5L45.6,42.5L45.6,42.5L45.6,42.5z"/>
			<path class="st0" d="M45.6,42.5L45.6,42.5L45.6,42.5z"/>
			<polygon class="st0" points="45.5,42.6 45.5,42.5 45.5,42.5 			"/>
			<path class="st0" d="M45.5,42.6L45.5,42.6C45.5,42.6,45.4,42.6,45.5,42.6L45.5,42.6L45.5,42.6z"/>
			<path class="st0" d="M45.6,42.5L45.6,42.5L45.6,42.5z"/>
			<path class="st0" d="M45.5,42.5L45.5,42.5L45.5,42.5z"/>
			<path class="st0" d="M45.8,42.6c0,0,0.1,0,0.2,0C45.9,42.6,45.8,42.6,45.8,42.6L45.8,42.6L45.8,42.6z"/>
			<path class="st0" d="M45.7,42.5L45.7,42.5z"/>
			<polygon class="st0" points="45.6,42.5 45.5,42.5 45.5,42.5 			"/>
			<path class="st0" d="M45.5,42.5L45.5,42.5L45.5,42.5L45.5,42.5L45.5,42.5z"/>
			<path class="st0" d="M45.6,42.5L45.6,42.5L45.6,42.5L45.6,42.5z"/>
			<path class="st0" d="M10.5,25.7L10.5,25.7L10.5,25.7L10.5,25.7z"/>
			<path class="st0" d="M43.3,43.6L43.3,43.6C43.4,43.5,43.4,43.6,43.3,43.6L43.3,43.6z"/>
			<path class="st0" d="M43.4,43.6C43.4,43.6,43.3,43.6,43.4,43.6C43.3,43.6,43.3,43.6,43.4,43.6L43.4,43.6L43.4,43.6z"/>
			<path class="st0" d="M43.4,43.5L43.4,43.5C43.4,43.5,43.5,43.5,43.4,43.5L43.4,43.5C43.5,43.5,43.4,43.5,43.4,43.5z"/>
			<path class="st0" d="M43.5,43.5c0.1,0,0.2-0.1,0.2-0.1S43.6,43.5,43.5,43.5L43.5,43.5L43.5,43.5z"/>
			<path class="st0" d="M43.5,43.5L43.5,43.5C43.4,43.5,43.4,43.5,43.5,43.5L43.5,43.5z"/>
			<path class="st0" d="M43.4,43.5L43.4,43.5z"/>
			<path class="st0" d="M43.2,43.6L43.2,43.6C43.3,43.6,43.2,43.6,43.2,43.6L43.2,43.6L43.2,43.6z"/>
			<path class="st0" d="M43.1,43.7c0,0,0.1,0,0.2,0C43.2,43.6,43.2,43.6,43.1,43.7C43.1,43.6,43.1,43.7,43.1,43.7z"/>
			<path class="st0" d="M42.8,43.7L42.8,43.7L42.8,43.7z"/>
			<path class="st0" d="M43.1,43.7C43.1,43.7,43.1,43.6,43.1,43.7c0.1,0,0.1,0,0.2-0.1C43.2,43.6,43.2,43.6,43.1,43.7z"/>
			<path class="st0" d="M45.5,42.5L45.5,42.5L45.5,42.5L45.5,42.5L45.5,42.5z"/>
			<path class="st0" d="M43.5,43.5L43.5,43.5L43.5,43.5L43.5,43.5z"/>
			<path class="st0" d="M10.5,25.7L10.5,25.7L10.5,25.7L10.5,25.7L10.5,25.7z"/>
			<path class="st0" d="M10.6,25.6L10.6,25.6L10.6,25.6z"/>
			<path class="st0" d="M36.8,50.4c-0.2,0-0.5,0-1,0.1h-0.1L37,52v-0.1c0.1-0.3,0.2-0.6,0.2-0.8C37.1,50.8,37,50.6,36.8,50.4
				L36.8,50.4L36.8,50.4z"/>
			<path class="st0" d="M10.3,25.9L10.3,25.9L10.3,25.9L10.3,25.9c0.1,0,0.1-0.1,0.1-0.1C10.4,25.8,10.4,25.8,10.3,25.9L10.3,25.9z"
				/>
			<path class="st0" d="M37.7,52.8L37.7,52.8L37.7,52.8L37.7,52.8C37.9,53,37.7,52.8,37.7,52.8C37.6,52.7,37.6,52.7,37.7,52.8
				L37.7,52.8C37.7,52.7,37.7,52.7,37.7,52.8z"/>
			<path class="st0" d="M37.6,52.6L37,52v0.1C37.2,52.3,37.4,52.5,37.6,52.6z"/>
			<path class="st0" d="M89.9,64.7L89.9,64.7L89.9,64.7L89.9,64.7z"/>
			<path class="st0" d="M93.8,63.1c0.1-0.2,0.2-0.7,0.1-0.7c-0.5-0.4,0.2-1.2,0-1.7c0.6-1,0-1.9,0.4-2.9c0.1-0.1,0-0.4-0.1-0.4
				c-0.6-0.3,0-0.7,0.1-0.8c0.4-0.4,0.4-0.8,0.2-1c-0.2-0.2-0.3-0.5-0.3-0.8c-0.1-0.9-0.1-0.8-0.8-0.8c-0.6,0.1-0.7-0.2-0.6-0.9
				c0.5-0.2,0-0.8,0.5-1.2c0.4-0.3,0.6-1,1-1.5c0.1-0.2,0.1-0.6,0.2-0.9c-0.4,0-0.3-0.3-0.2-0.7c0.1-0.5,0.1-1-0.3-1.2
				c-0.1,0-0.2-0.2-0.1-0.3c0.1-0.4,0.2-0.8,0.3-1.2c0.1-0.2,0.3-0.2,0-0.4c-0.2-0.1-0.4-0.3-0.6-0.4c-0.2-0.1-0.5-0.1-0.8-0.1
				c-0.2,0,0,0.6-0.3,0.3c-0.1,0,0-0.5,0.1-0.7c0.1-0.3,0.2-0.5,0.3-0.8c0.2-0.7,0.3-1.5,0.6-2.2c0.1-0.4,0.2-1,0.7-1.1
				c0.1,0,0.3-0.3,0.3-0.3c-0.3-0.9,0.1-0.9,0.6-0.9c0.3,0,0.3-0.3,0.2-0.6c-0.3-0.5-0.8-0.9-0.5-1.7c0.3-1-0.9-0.7-0.7-1.6
				c0.1-0.2-0.2-0.6,0-1c0.2-0.7,0.3-1.4,0-2.2c-0.2-0.8-0.1-0.9,0.5-0.8c0.3,0,0.6,0,0.8-0.1c0.1,0,0.2-0.2,0.1-0.3
				c0-0.1-0.2-0.3-0.2-0.3c-0.2,0-0.5,0.1-0.7,0s-0.6-0.3-0.4-0.7c0.2-0.5,0.1-0.8-0.2-1.3c-0.2-0.3-0.4-1-0.1-1.3
				c0.3-0.4-0.2-1,0.1-1.4c0.4-0.8-0.4-0.7-0.5-1.1c-0.2-0.8-0.7-1.5-0.3-2.3c0.1-0.1,0.1-0.4,0-0.6c-0.1-0.5,0-0.8,0.4-0.9
				s0.1-0.3-0.1-0.5c-0.3-0.1-0.5-0.3-0.6-0.7c-0.1-0.3-0.3-0.7-0.5-0.9c-0.2-0.3-0.5-0.6-0.7-0.8c-0.2-0.1-0.3,0.2-0.5,0.4
				c-0.1,0-0.2,0.1-0.2,0.1c-0.7,0.2-1.6,0.2-2.2,0.6c-0.1,0.1-0.3,0-0.4,0c-0.3-0.4-0.7-0.8-0.9-1.1c-0.3-0.6-0.4-1.1-1.1-1.3
				c-0.1,0-0.3-0.4-0.3-0.6c-0.1-0.7-0.6-1.2-1-1.5s-0.7-0.6-0.9-0.9c-0.4-0.5-0.4-0.5-1-0.1c-0.2,0.7-0.3,0.8-0.7,0.3
				c-0.2-0.3-0.8-0.7-0.8-0.9c0.1-0.5-0.6-0.4-0.5-0.8c0-0.2-0.5-0.6-0.6-0.9c-0.1-0.3-0.3-0.3-0.5-0.4c-0.5-0.3-0.8,0-1.2,0
				c-0.2,0-0.7,0.1-0.8,0.1c-0.4-0.2-0.7-0.2-0.9,0.1c-0.2,0.2-0.6,0.3-0.9,0.4c-0.2,0.1-0.4,0-0.5-0.3c-0.1-0.4-0.3-0.6-0.6-0.5
				c-0.2,0-0.2,0.4-0.3,0.6c-0.2,0.9-0.3,0.9,0.1,1.6c0.2,0.4,0.3,0.8,0.7,1c0.2,0.1,0.3,0.3,0.3,0.5c0,0.5,0.3,0.8,0.8,1
				c0.3,0.2,0.7,0.4,0.9,0.7c0.3,0.5,0.8,0.5,1.2,0.9c0.2,0.3,0.3,0.7,0.5,1s0.7,0.3,1.1,0.5c0.1,0.1,0.3,0.2,0.4,0.3
				c0.3,0.3,0.6,0.6,0.9,0.9c0.6,0.4,1.3,0.6,1.2,1.5c0,0.1,0.2,0.2,0.3,0.2c0.3,0.2,0.7,0.5,1,0.7c0.7,0.5,0.8,0.5,1.1,1
				c0.3,0.5,0.5,0.8,1,0.5c0.3-0.1,0.4,0.1,0.4,0.3c0.1,0.2,0.4,0.6,0.1,0.7c-0.6,0.1-0.2,0.6-0.2,0.9c0,0.5,0.5,0.7,0.5,1.1
				c0.3-0.1,0.5-0.1,0.8-0.2c0.2-0.1,0.3-0.3,0.4-0.4c0.1,0,0.2,0,0.3,0l-0.1,0.2c-0.7,1.1-0.6,1.5,0,2.9c0.4,1.5,1.6,2.6,1.5,4.3
				v0.1c0.4,0.2,0.4,0.7,0.3,1c-0.1,0.5-0.6,0.2-0.9,0.3h-0.1l-0.1,0.1c0,0.1,0.1,0.2,0.1,0.2c0.1,0,0.2,0,0.4,0
				c0.3-0.1,0.5,0.2,0.7,0.4L89.3,36h-0.1c-0.3,0.1-0.2,0.4-0.2,0.6c0.1,0.5,0.2,0,0.3,0c0.1,0,0.2,0,0.2,0c0.1,0,0.2-0.1,0.3-0.2
				c-0.2,0.3,0.4,0.4,0.2,0.8c-0.2,0.2-0.1,0.3-0.3,0.1c-0.2-0.1-0.4-0.2-0.5-0.1c-0.4,0.2,0.1,0.3,0.1,0.5s0,0.5,0,0.7
				c0.1,0.3,0.3,0.2,0.5,0.1l0,0c0,0,0.1-0.1,0.1,0c0.1-0.1,0.2,0,0.1,0c0,0.1-0.1,0.1-0.1,0.2l-0.1-0.1c-0.2,0.5-0.4,0.8-0.6,1.1
				c0,0.1,0,0.2,0,0.3c-0.1,1-0.1,2.1-0.3,3.2c-0.1,0.3,0.4,0.6-0.1,0.8c0.1,0.2,0.3,0.5,0.4,0.5c0.4,0.2,0.5,0.1,0.4,0.4
				c-0.3,0.8,0.1,1.3,0.2,2c0,0.2,0.2,0.4-0.2,0.4c-0.7,0-0.7,0-0.8,0.7c-0.1,0.4-0.2,0.8-0.3,1.1c0,0.4,0.1,0.9,0,1.3
				c-0.1,0.4-0.3,0.8-0.5,1.2C87.9,52,88.2,52,88.4,52c0.1,0,0.2,0,0.3-0.1c0.2-0.1,0.4-0.1,0.3,0.3c-0.1,0.2-0.1,0.6-0.5,0.5
				c-0.2,0-0.4,0-0.6,0c-0.1,0-0.2,0.2-0.2,0.2c0.2,0.4-0.7,0.4-0.3,0.9c0.3,0.4-0.4,0.5-0.3,1c0.1,0.6-0.3,1.3-0.6,2
				c-0.2,0.5-0.1,0.6,0.3,0.5c0.3-0.1,0.7,0.3,1-0.3c0.1,0.1,0.3,0.2,0.2,0.2c-0.1,0.2-0.2,0.6-0.3,0.6c-0.3,0.2-0.7,0.3-1.1,0.3
				c-0.2,0-0.3-0.3-0.5-0.5c-0.3-0.4-0.5-0.3-0.8,0.2c-0.6,1-0.6,1,0.3,1.5c0.4,0.2,0.7,0.5,1.2,0.5c0.2,0,0.5,0.5,0.4,0.7
				c-0.5,0.6-0.1,0.9,0.1,1.1c0.3,0.4,0.2,0.7-0.2,1c-0.2,0.1-0.3,0.2-0.4,0.4c-0.4,0.6-0.7,1.2-1.4,1.2c-0.1,0-0.3,0.3-0.5,0.5
				c-0.1,0.1-0.3,0.1-0.3,0.1c-0.1-0.1-0.1-0.2,0-0.3c0.3-0.5,0.6-1,0.9-1.5c0.7-1.1,0.6-1.8-0.1-2.5C85.2,60.4,85,60.3,85,60
				c0,0-0.3-0.1-0.4,0c-0.2,0.2-0.4,0.7-0.6,0.7c-0.6,0.1-0.1,0.7-0.5,0.8c-0.5,0.1-0.1,0.6-0.3,0.8c-0.1,0.1-0.2,0.4-0.3,0.5
				c-0.7,0.4-1.1,1.1-1.5,1.7c-0.9,1.3-2.2,2.1-3.2,3.3c-0.2,0.3-0.2,0-0.2-0.2c-0.1-0.5-0.5-0.2-0.7-0.2s-0.4,0.3-0.4,0.5
				c0,0.3,0.4,0.2,0.6,0.2h0.1c0.1,0,0.3,0.1,0.3,0.1c-0.1,0.2-0.1,0.3-0.3,0.4c-0.1,0.1-0.3,0.1-0.4,0.1c-0.3-0.1-0.6-0.1-0.8,0.2
				c-0.2,0.2-0.3,0.6-0.4,0.6c-0.3,0.1-0.4,0.4-0.5,0.5c-0.6,0.3-0.8,0.9-1.3,1.2c-0.4,0.2-0.7,0.6-1,0.8c-0.4,0.2-0.7,0.7-1.1,0.7
				c-0.5,0-0.6,0.5-0.9,0.7c-0.5,0.3-1.1,0.2-1.5,0.6c0,0-0.2-0.2-0.4-0.2c-0.1,0-0.4,0.2-0.4,0.3c0.2,0.4,0,0.7-0.4,0.5
				c-0.5-0.2-0.4,0.7-0.8,0.4c-0.2-0.1-0.4-0.3-0.5-0.5c-0.2-0.4-0.4-0.3-0.7-0.1c-0.4,0.2-0.6,0.4-0.6,0.8c0,0.1-0.1,0.2-0.1,0.3
				c-0.6,0.1-1.1,0.2-1.7,0.3c-0.5,0.1-1.1,0.3-1.6,0.5h-0.1c-0.5-0.8-1.1-0.2-1.7-0.1c-0.3,0.1-0.3,0-0.5-0.2
				c-0.2-0.3-0.5-0.3-0.8,0.1c-0.2,0.2-0.5,0.4-0.8,0.6v0.7c-0.2,0-0.4,0-0.6-0.1c-0.3,0-0.7,0.1-1,0.1c-0.1,0-0.3-0.1-0.3-0.1
				c0.1-0.6-0.5-0.4-0.9-0.5c-0.2,0-0.3-0.2-0.3,0.1c0,0.7-0.9,0.5-1.1,0.8c-0.3-0.2-0.7-0.3-1-0.5c-0.1-0.1-0.5-0.1-0.2-0.4
				c0.2-0.2,0.3-0.2,0.5,0c0.2-0.1,0.4-0.3,0.6,0c0,0,0.3,0,0.3-0.1s0-0.3,0-0.3c-0.3-0.2-0.5-0.7-1-0.3c-0.4-0.5-1.1,0.1-1.6-0.3
				c-0.1-0.1-0.7-0.1-0.7,0c-0.3,0.4-0.6-0.3-1,0c-0.2,0.1-0.6-0.1-1-0.2c-0.2-0.1-0.4-0.2-0.6-0.2c-0.8,0-1.5-0.2-1.8-0.9
				c-0.6-0.2-0.8-1.1-1.6-0.6c-0.2,0.1-0.5-0.1-0.4-0.5c0.1-0.3-0.4-0.6-0.5-0.3c-0.2,0.4-0.4,0.3-0.4,0c0-0.7-0.6-0.7-0.9-1
				C43,71.8,42.7,72,42.5,72c0.2,0.5-0.1,0.3-0.3,0.2c-0.1,0-0.2-0.1-0.2-0.1c-0.4-0.5-0.9-0.9-1.2-1.4C40.6,70.5,40,70.2,40,70
				c-0.2-0.4-0.7-0.2-0.9-0.4c-0.3-0.3-0.6-0.6-0.9-0.9c-0.4-0.4-0.9-0.9-1.1-1.4c-0.4-0.8-0.7-1.5-1.3-2.2
				c-0.2-0.3-0.4-0.7-0.5-1.1c-0.1-0.2-0.2-0.5-0.3-0.7s-0.2-0.4-0.2-0.6c0.1-0.4-0.4-0.4-0.3-0.5c0.2-0.3,0.1-0.4-0.1-0.7
				c-0.2-0.2-0.6-0.4-0.5-0.8c0-0.1-0.2-0.2-0.3-0.2c-0.3-0.2-0.4-0.5-0.1-0.8c0.2-0.2,0.5-0.4,0.7-0.6c0.5-0.4,0.5-0.7,0.2-1.1
				c-0.2-0.3-0.7-0.6-0.7-1c0-0.5-0.3-0.7-0.5-1s0.2-0.8-0.4-0.9V55c0.5-0.2,0.1-0.4,0.1-0.5s0.1-0.2,0.2-0.2c0.2,0,0.5,0,0.7,0
				s0.1,0.2,0.1,0.3s0.3,0.1,0.5-0.1c0.2-0.2,0.3-0.3,0.4-0.1c0.1,0.1,0.1,0.2,0.2,0.3c0.2,0.1,0.2,0.3,0.6-0.1
				c0.3-0.4,0.8-0.7,0.6-1c0-0.1,0-0.2,0.1-0.3c0.5-0.4,0.5-0.8,0.5-1c-0.3-0.2-0.6-0.5-0.8-0.7c-0.5-0.3-0.8-0.6-1.2-0.8
				c-0.1,0-0.1,0-0.2,0.1c0,0-0.2,0.1-0.4,0.1c-0.1,0-0.2,0-0.3,0c0,0-0.1-0.1,0-0.1c0.1-0.1,0.4-0.2,0.4-0.2c-0.1-0.1,0-0.2,0-0.2
				s0,0-0.1,0l0,0c0,0,0,0-0.1,0c0,0-0.1,0-0.2,0c-0.1,0-0.2-0.1-0.2-0.1H34h-0.1l0,0l0,0l0,0c0.1,0,0.2,0,0.2,0l0,0h0.1h0.1
				c0.1,0,0.1,0,0.1,0h-0.1c0,0,0,0-0.1,0l0,0c0,0,0,0-0.1,0s-0.1,0,0,0c0,0,0.1,0,0,0H34h0.1c0.1,0,0.1,0.1,0.2,0.1h0.1l0,0
				c0.2,0.1,0.3,0.2,0.5,0.3c0.2-0.1,0.4-0.1,0.6-0.1l-1.3-1.5c0.2,0.1,0.5,0.2,0.7,0.3c0.3,0.1,0.6,0.3,0.9,0.4
				c0.2,0.1,0.3,0.2,0.5,0.2c0.2,0.1,0.3,0.1,0.4,0.3l0,0c0.2,0,0.4,0,0.7,0v0.1c-0.1,0.1-0.1,0.3-0.2,0.5c0.1,0.1,0.2,0.2,0.2,0.3
				l0.3,0.5l0.2,0.3l0.1,0.1l0,0c0.1,0,0.1,0.1,0.2,0.2c0.5,0.5,0.4,0.3,0.3-0.2c0-0.1-0.1-0.2-0.1-0.3s0-0.2,0-0.2
				c0-0.1,0-0.2-0.1-0.3c-0.2-0.4-0.2-0.7,0.1-0.8s0.3-0.5,0.3-0.9s0-0.4-0.2-1c0-0.1,0-0.1-0.1-0.2c-0.1-0.5-0.3-0.6-0.6-0.6
				c-0.2,0-0.3,0.1-0.5,0.1c-0.3-0.1-0.5,0-0.6,0c-0.4-0.2-0.2,0.3-0.3,0.2c-0.4-0.2-0.3,0.2-0.3,0.4H36c-0.4-0.4-0.5-0.4-0.4,0.1
				c0,0-0.1,0.1-0.1,0c-0.1-0.1-0.3-0.2-0.4-0.3c-0.1-0.1-0.2-0.2-0.1-0.3c0-0.1,0.2-0.3,0.3-0.4c0.3-0.2,0.5-0.5,0.5-0.8
				s0-0.4,0.2-0.6c0.4-0.4,0.3-0.7-0.1-1.4c-0.1-0.2-0.1-0.6-0.5-0.5c-0.2,0-0.4-0.3-0.6-0.3c-0.2,0-0.5,0.1-0.7,0.2
				c-0.2,0-0.4,0.2-0.5,0.1c-0.4-0.4-0.8-0.3-1.2-0.2c-0.3,0-0.8-0.3-1.1,0c-0.4-0.5-0.6,0-0.6,0s0,0.2,0.1,0.3c0,0.2,0,0.3-0.2,0.5
				c-0.1,0-0.1,0.1-0.1,0.1s0,0,0,0.1l0,0l-0.1,0.1l0,0l0,0c0,0.1,0.1,0.1,0.1,0.2c0.1,0.1,0.2,0.3,0.2,0.4c0,0.3,0.3,0.4,0.5,0.4
				h0.1h0.1l0,0l0.1-0.1l0,0l0,0h0.1c0.1,0,0.3,0,0.4,0c0,0.1,0,0.2-0.1,0.4v0.1l0,0l-0.1,0.1l0,0l0,0l0,0c-0.5,0-0.2,0.2,0.1,0.5
				c0.1,0.1,0.2,0.2,0.2,0.3c-0.1,0.2,0.1,0.5,0.1,0.7c0,0.1,0,0.2,0,0.2c0,0.1,0,0.1-0.1,0.2c-0.1,0.1-0.5-0.1-0.7-0.1
				s-0.5-0.1-0.8-0.2c-0.5-0.2-0.6,0.1-1.1-0.1c-0.1,0-0.1,0.2-0.3,0.2c-0.2,0-0.3,0.2-0.2,0.3c0.1,0.1,0.1,0.2-0.1,0.3
				s-0.4,0.1-0.6,0.2c-0.1,0-0.2,0.2-0.2,0.2c0.5,0.3,0,0.4-0.2,0.5c-0.2,0.2-0.4,0.4-0.5,0.6c-0.3,0.5-0.3,1-0.6,1.5
				c-0.2,0.4-0.3,0.8-0.4,1.3c0,0.2-0.1,0.4-0.1,0.6c0,0.1-0.2,0.1-0.3,0.1c-0.1,0-0.2-0.2-0.2-0.2c0-0.2,0.1-0.4,0.2-0.6
				c0.1-0.2,0.1-0.4,0.2-0.6c0.1-0.2-0.3-0.5,0.2-0.6c0.5-0.2-0.2-0.2,0-0.4c0.3-0.2,0.2-0.5,0.4-0.7c0.2-0.3-0.1-0.4-0.2-0.7
				c0-0.5-0.1-1-0.5-1.4c-0.1,0,0-0.2,0-0.3c0.3-0.2,0.6-0.3,0.9-0.5c0.3-0.1,0.6-0.2,0.9-0.3c0.1,0,0.3,0,0.1-0.2
				c-0.5-0.4,0-0.7,0-1c0.4,0.1,0.1-0.2,0.2-0.3c0.1-0.2,0.2-0.3,0.3-0.5c0-0.1,0-0.2,0-0.2c-0.2-0.2-0.3-0.5-0.6-0.8
				c-0.3-0.2-0.5-0.2-0.8,0H27c-0.1,0-0.2-0.1-0.3-0.2v-0.2c0.3-0.2,0.6-0.5,1-0.5c0.6,0,0.6-0.6,1.1-0.5c0.4-0.1,0.8-0.3,1-0.2
				c0.1,0.1,0.2,0.1,0.3,0.1c0.1,0,0.1,0,0.1,0c0.1,0,0.1-0.1,0.1-0.2c0-0.1,0-0.2,0.2-0.2c0.7,0.1,1.5,0.1,2.2,0.2
				c0.4,0.1,0.8,0,1.2-0.3c0.1-0.1,0.2,0,0.4,0c0.4,0,0.9,0.1,1.3,0.2c0.4,0.1,0.9,0.5,1.2,0c0,0,0.2,0,0.3,0
				c0.4,0.2,0.8,0.3,1.1,0.9c0.2,0.4,0.6,0.8,0.9,1.2c0.2,0.2,0.4,0.4,0.5,0.7c0.3,0.5,0.3,0.6-0.1,0.8c-0.1,0-0.2,0-0.3-0.1
				c0.1-0.5-0.2-0.3-0.2-0.2c-0.1,0.2-0.1,0.5-0.1,0.7c0,0.1,0.2,0.2,0.3,0.3h0.2c0-0.5,0.4-0.5,0.6-0.7c0.1-0.1,0.2-0.3,0.4-0.1
				c0.3,0.5,0.3,0.4,0.5,0c0.1-0.2,0.3-0.1,0.5,0.1c0.3,0.4,0.7,0.8,0.9,1.2c0.3,0.5,0.6,0.7,0.8,1c0.1,0.1,0.1,0.1,0.2,0.2
				c0-0.1,0-0.2,0-0.3c-0.1-0.4,0-0.7,0.1-0.7s0.2-0.1,0.1-0.3l-0.1-0.6c0-0.1,0-0.2,0-0.2s0.1,0,0.1,0.1c0.4,0.5,0.4,0.5,0.7,0.5
				c0,0,0.1,0.1,0.1,0.2c0.1,0.5,0.1,0.7,0.1,0.9c0-1.5,0.2-2.8,0.4-3.6c-0.1,0-0.1-0.1-0.1-0.1c0-0.1-0.2-0.3-0.2-0.4
				c0.1-0.2,0-0.3,0-0.5c0-0.1-0.2-0.1-0.3-0.2l-0.1,0.1c0,0,0,0.1-0.2,0c-0.3-0.1-0.7-0.2-0.7-0.4c0-0.1,0-0.1-0.1-0.2
				s0.3-0.1-0.1-0.1c0.1,0,0.1-0.1,0.2-0.1c0.2,0,0.3-0.1,0.4-0.1c0.2,0,0-0.1-0.2,0l-0.5,0.1c-0.1,0-0.2,0-0.2,0h0.2
				c0.1,0,0.2-0.1,0.2-0.1l0,0c-0.1,0-0.2,0.1-0.3,0.1l0,0c0,0,0,0-0.1,0s-0.3,0.1-0.4,0.1c0,0,0.1,0,0.2,0c-0.1,0-0.2,0-0.3,0.1
				h0.1l0,0c-0.1,0-0.1,0-0.2,0h0.1H42c-0.2,0-0.5,0.1-0.4,0.1c0,0,0,0-0.1,0l0,0c-0.1,0-0.2,0-0.3,0h-0.1c0,0,0,0-0.1,0
				s-0.1,0-0.1,0s0,0,0.1,0c0,0,0.1,0,0.2,0c0.2,0,0.3,0,0.3,0c0.3,0,0.7-0.1,1-0.2l0,0c0.1,0,0.1,0,0.2,0c0,0,0,0-0.1,0h0.1h0.1
				h-0.1c0,0,0,0,0.1,0c0,0,0,0,0.1,0l0,0l0,0c0.2,0,0.4-0.1,0.7-0.2c0.1,0,0.1,0,0.2-0.1c0,0,0.1,0,0.2-0.1c0.1,0,0.2-0.1,0.3-0.1
				s0.2-0.1,0.2-0.1c0.1-0.1,0.2-0.1,0.3-0.2l0,0c0,0,0,0-0.1,0l0,0c0,0-0.1,0-0.2,0.1c0,0,0.1,0,0.1-0.1l0,0c0,0,0,0,0.1,0l0,0l0,0
				h0.1l0,0c0,0,0.1,0,0.1-0.1c0.1-0.1,0.2-0.1,0.4-0.2c0,0,0,0-0.1,0l0,0l0,0l0,0l0,0l0,0l0,0l0,0l0,0h0.1l0,0l0,0l0,0l0,0l0,0
				c0-0.1,0.1-0.2,0.1-0.3l0,0c0,0.1,0,0,0,0l0,0l0,0l0,0l0,0c0.1-0.2,0.1-0.2,0.2-0.4c0,0,0,0,0,0.1s-0.1,0.1-0.1,0.2l0,0
				c0-0.1,0.1-0.2,0.1-0.3l-0.2-0.2l0,0c0.3-0.2-0.8,0.5,0.8-0.5l0,0l0,0l0,0l0,0l0,0l0,0l0,0l0,0l0,0c0,0,0,0,0,0.1l0,0l0,0
				c-0.1,0.1-0.1,0.1-0.2,0.3c-0.1,0.1-0.1,0.2-0.2,0.3c0,0,0,0,0,0.1l0,0l0,0l0,0l0,0v0.1l0,0v0.1l0,0v0.1c0.1,0.2,0.3,0.3,0.4,0.5
				l0.2,0.3v0.1h-0.1h-0.1c0,0-0.2,0-0.3,0h-0.2l0,0h-0.1c-0.1,0-0.1,0-0.2,0v0.1c0,0.1,0,0.1-0.1,0.3l0,0c0,0.1-0.1,0.3-0.2,0.5
				C45,43.9,45,43.8,45,44c-0.1,0.5-0.2,0.8-0.3,1.2c0,0.1,0,0.2-0.1,0.3c0,0,0.1,0,0.2,0c0.2,0,0.3,0,0.4-0.1c0.1,0,0.1-0.2,0-0.2
				c-0.3-0.2-0.1-0.3-0.1-0.5s0.2-0.4,0.3-0.5c0.1-0.2,0.8-0.2,0.8-0.4c0.1,0,0.2,0,0.2,0.1c0.2,0.1,0.2,0.3,0,0.5
				c-0.2,0.3-0.2,0.5,0,0.6c0.4,0.1,0.6,0,0.9-0.2c0.1-0.1,0.5,0.1,0.7,0.2c0.7,0.1,0.2,0.4,0.3,0.5c-0.5,0.2-0.2,0.7-0.6,0.9
				c-0.1,0.1-0.2,0.2-0.2,0.3s0,0.3,0,0.4c0,0.1,0,0.2,0,0.3c-0.1,0.1-0.1,0.2-0.2,0.2c-0.1,0.1,0,0.3-0.2,0.3s-0.1,0.3-0.2,0.4
				c-0.3,0.2,0,0.6,0.3,1c0.2,0.3,0.6,0.6,0.5,0.8l0.1,0.1c0.2,0.1,0.3,0.2,0.4,0.4c0.3,0.8,1.1,1.3,1.7,1.8c0,0,0.1,0,0.2-0.1
				c0.2-0.2,0.6,0.3,0.7,0c0.2,0.2,0.5,0.3,0.8,0.5c0.1,0.1,0.1,0.2,0.1,0.3c0.3,0.4,0.5,1,0.9,1.2c0.9,0.5,2,0.9,3.3,0.3
				c0.9-0.4,1.8-0.8,2.7-1.3c0.7-0.3,1.5-0.9,2.1-0.9c0.9,0,1.6-0.9,2.3-1.5l0.1-0.2c-0.4-0.8,0.4-1.2,0.5-1.9s0.4-1,0.8-0.9
				c0.2,0,0.3,0.1,0.5-0.1c0.4-0.5,0.5-0.1,0.7,0.2c0.1,0.2,0.3,0.5,0.4,0.4c0.2-0.2,0.5-0.9,0.5-0.9c-0.5-1,0.2-1.8,0.3-2.5
				c0.1-0.9,0.4-1.8,1.1-1.7c0.6,0,0.9-0.7,0.9-1.8c0-0.6,0.1-1.2,0.1-1.8s0-1.2-0.1-1.9c-0.1-0.6,0.2-1.3,0.3-1.9
				c0.1-0.6,0.3-1.1,0.4-1.6s-0.2-1.7,0.7-0.7c0-0.2,0-0.5-0.1-0.6c-0.3-0.7-0.3-1.1-0.4-1.6c-0.1-0.4-0.2-0.9-0.4-1.3
				c-0.3-0.7-0.8-1.4-1.2-2c-0.2-0.3-0.2-0.6-0.3-0.9c-0.2-0.4-0.5-0.8-1-1.2c-0.3-0.3-1-1.4-1.6-2.1c-0.1-0.1-0.2-0.3-0.4-0.4
				l-0.1-0.2c-0.1-0.1-0.2-0.2-0.2-0.3c-0.1-0.2-0.2-0.4-0.1-0.6c0.1-0.1,0.1-0.2,0.1-0.3V22v-0.1l0,0l-0.2-0.2l0,0l0,0l0,0
				l-0.1-0.1c-0.3-0.3-0.7-0.7-1.1-1c-1-0.9-2-1.3-3.1-2.1c-3.6-2.5-7-4.2-10.4-5.1c-3-0.7-5.6-1.2-8.3-1.2c-1.1,0-2,0.4-2.9,0.4
				c-0.7-0.1-1.5-0.1-2.3,0.2c-0.8-0.4-1.3,0.4-1.9,0.4c-1,0-1.8,0.2-2.6,0.7c-0.2,0.2-0.7,0.3-0.8,0c0-0.2-0.1-0.4-0.2-0.6
				c0-0.3-0.3-0.3-0.7-0.1c-0.7,0.2-1.3,0.6-1.9,0.9c-0.8,0.4-1.8,0.7-2.7,1.1c-0.5,0.2-1,0.8-1.4,0.8c-1.2,0.2-2,1.2-3.1,1.6
				c0,0.7-1.4,0.4-1.4,1.1c-0.7,0.4-1.4,1-2,1.2c-0.9,0.2-1.4,1.4-2.3,1.4c-0.5,0.5-1,1-1.6,1.5l-0.9,0.8l-1.1,1.1l-0.8,0.8
				l-0.2,0.2l-0.1,0.1c-0.5,0.5-1.1,1.1-1.6,1.7c-0.6,0.7-1.3,1.4-1.7,2.4c-0.2,0.6-1,1.5-1.6,2.2s-1,1.4-1.5,2.2
				c-0.4,0.8-0.7,1.6-0.9,2.5c-0.2,1-0.7,2.2-1,3.3c-0.2,0.5-0.5,1-0.7,1.6c-0.2,0.5-0.3,1.4-0.4,1.5c-0.4,0.5-0.1,1-0.3,1.5
				c-0.3,0.8-0.4,1.8-0.5,2.8s-0.1,1.9-0.3,2.8c-0.1,0.3,0.4,1.3,0.1,2.1c-0.1,0.2,0,0.9,0.1,1.2c0.6,1.5,0.5,3.1,0.9,4.5
				c0.2,0.7,0.3,1.3,0.4,2C1.5,60.8,1.6,61.4,2,62c0,1.1,0.5,1.9,1,2.7c0.3,0.5,0.5,0.4,0.5,0c0-0.2,0.1-0.4,0-0.6
				C3.2,63,3.4,63,3.9,63.5c0.4,0.3,0.9,0.7,1.2,0.6c0.2,0,0.2-0.7,0.2-1.1c0.1-1,0.8-1.2,0.5-2.6c0,0,0.2,0,0.3,0.1
				c0.6,1,1.3,1.6,2.1,2.2c0,0,0.2,0.4,0.4,0.8C8.8,63.9,9,64.2,9,64.2c-0.1,0.7,0.5,1.4,0.8,2.1c0.2,0.5,0.9,0.8,0.6,1.4
				c0,0,0.2,0.4,0.4,0.4c0.6,0.2,0.9,0.8,1.1,1.3c0.3,0.7,0.5,1.5,0.8,2.2s0.5,1.3,0.7,1.9l0.8,1.7c0.2,0.6,0.2,1.2,0.6,1.8
				c0.3,0.6,0.6,1.2,0.8,1.8c0.3,0.9,1,1.8,1.2,2.7c0.3,1,1.2,1.7,1.8,2.5c0.2,0.3,0.4,0.6,0.7,0.8s0.6,0.1,0.4,0.4
				c-0.5,0.5,0.1,0.5,0.5,0.6c0.1,0,0.3,0.1,0.4,0.2c0.5,0.7,1.3,1.2,1.9,1.8c0.7,0.7,1.3,1.4,2,2l0.7,0.6c0.1-0.1,0.3-0.2,0.4-0.4
				c0.2-0.2,0-0.6-0.3-0.9c-0.7-0.8-1.3-1.6-1.9-2.4c-0.8-1-1.7-2.1-2.4-3.1c-0.3-0.5-0.6-0.8-0.5-1.2c0-0.1,0.1-0.7-0.6-0.8
				c-0.1,0-0.4-0.3-0.3-0.4c0.1-0.6-0.9-1.2-1-1.8c-0.8-0.5-0.5-1.2-1-1.8c0,0,0-0.2,0.1-0.2s0.3,0,0.4,0.1c0.3,0.3,0.7,0.6,1,0.9
				c0.3,0.4,0.5,0.8,0.8,1.1c0.5,0.5,1,0.9,1.6,1.4c0.5,0.5,1.1,0.9,1.6,1.4s1.3,0.8,1.6,1.5c0.7,0.1,0.9,0.8,1.5,1.1
				c0.5,0.2,0.7,0.6,1.1,1c1.5,1.6,1.5,1.7,3.7,2.5c0.2,0.1,0.5,0.2,0.8,0.4c0.7,0.3,1.4,0.7,2.1,1c0.5,0.2,1,0.4,1.6,0.5
				c0.5,0.1,0.9,0.8,1.6,0.5c0.2-0.1,0.8,0.6,1.4,0.4c0,0,0.3,0.1,0.4,0.2c1,0.5,1.8,0.7,2.5,0.9c0.7,0.2,1.4,0.2,2.3,0.2
				c0.4,0,1,0.1,1.1,0.2c0.5,0.4,1.2,0.4,1.8,0.5s1.2,0.1,1.9,0.4c0.8,0.3,1.9,0.5,2.6,0.4c1.4-0.3,2.8-0.2,4.2-0.2
				c0.5,0,1,0,1.4,0.1c0.5,0,1,0.1,1.4,0.1c1.3,0.1,2.7,0.3,4.1-0.1c0.5-0.1,0.6,0,0.6,0.2c0,0.1,0,0.2,0.1,0.3
				c0,0.1,0.1,0.1,0.2,0.2c0.1-0.1,0.2-0.1,0.3-0.2c0.2-0.2,0.3-0.5,0.5-0.7c0.1-0.1,0.4-0.3,0.5-0.3c0.9,0,1.8-0.3,2.6-0.6
				c0.3-0.1,0.7-0.2,0.7-0.1c0.3,0.5,1.2,0.1,1.8,0.1c0.2,0,0.4,0,0.5,0c0.3-0.2,0.5-0.5,0.8-0.6c0.4-0.1,0.8-0.2,1.1-0.3
				c0.4-0.2,0.6-0.3,0.4-0.6c-0.1-0.1-0.1-0.1-0.1-0.2c0.1-0.4-0.2-0.9,0.3-1.3c0.5-0.5,1.1-0.2,1.6-0.2c0.3,0,1-0.1,1.1-0.2
				c0.4-0.6,1.4-1.2,1.4-1.9c0-0.2,0-0.5,0.1-0.7c0-0.2,0.1-0.4,0.2-0.5c1.3-0.8,2.7-1.8,3.8-1.4c0.8,0.2,0.7-0.4,0.6-0.4
				c-0.1-0.5,0.2-1.1,0.3-1.6c0.2-0.6,0.3-1.1,0.1-1.6c0.6-0.8,0.4-1.5,0.4-2.2c-0.3,0.2-0.5,0.6-0.8,0.3c-0.3-0.4-0.5-0.8-1.2-0.8
				c-0.1,0.1-0.2,0.3-0.2,0.4c0.2,0.2,0,0.5-0.3,0.6c-1.3,0.2-1.4,1.2-2,2c-0.1,0.1,0,0.2,0,0.3c-0.1,0-0.2-0.1-0.3-0.1
				c-1-0.2-1.1-0.1-1.8,0.9c-0.1,0.1-0.1,0.2-0.1,0.3c-0.5,0.2-0.4,1-1.1,0.9c-0.4,0-0.2-0.5-0.2-0.9c0-0.2,0-0.3,0.1-0.5
				c0.3-0.4,0.1-0.8-0.2-0.9c-0.6-0.2-0.7-0.6-1-1c-0.1-0.1-0.3-0.2-0.4-0.2s-0.2,0-0.3,0c0,0.1-0.1,0.2-0.1,0.2
				c0.6,0.2-0.3,1.2,0.7,1.2c-0.1,0.4-0.1,0.9-0.4,1.1c-0.7,0.6-1.5,1.1-2.3,1.4c-0.4,0.2-1,0.3-1.4,0.4S68,85.6,67.6,85
				c-0.1,0.1-0.3,0.3-0.4,0.4c-0.1,0.3-0.1,0.5-0.1,0.8c0,0.1-0.1,0.2-0.2,0.2s-0.2-0.1-0.2-0.1c-0.1-0.1-0.1-0.2-0.1-0.3
				c-0.3-0.7-0.4-0.8-1.5-0.4c-0.4,0.1-0.8,0.2-1.1,0.1c-0.2-0.1-0.6-0.3-0.7-0.2c-0.3,0.1-0.6,0.4-0.6,0.6c0,0.4-0.5,0.4-0.8,0.6
				c-0.4,0.2-0.6,0.6-0.9,0.9c-0.1,0.1-0.3,0.2-0.3,0.2c-0.5-0.7-1.1-0.2-1.7,0.1c-0.1,0-0.3-0.1-0.4-0.1c-0.3-0.1-0.2-0.2,0-0.3
				c0.3-0.3,0.5-0.6,0.8-0.9s0.9-0.6,0.1-0.9c0.2-0.2,0.8-0.2,0.6-0.6c0,0,0.4-0.2,0.6-0.2c0.8-0.2,1.5-0.3,2.2-0.8
				c0.5-0.3,0.7-0.8,0.3-1.1c-0.2-0.2-0.4-0.5-0.9-0.5c-0.2,0-0.4-0.1-0.4-0.2c-0.1-0.3-0.2-0.7-0.3-1c0-0.2,0.1-0.5,0.3-0.6
				c0.4-0.2,0.8-0.5,1.3-0.6C63.5,80,64,80,64.3,80s0.6,0.1,1,0.1c0.2,0,0.5-0.2,0.7-0.3c0.3-0.1,0-0.7,0.6-0.5
				c0.4,0.1,0.5-0.6,0.9-0.4c0.5-0.7,0.9-0.4,1.3-0.1c0.2,0.2,0.4,0.3,0.5,0.5c0.2,0.2,0.2,0.5,0.4,0.7c0.1,0.1,0.2,0.1,0.3,0.2
				c0-0.1,0-0.3,0-0.3c-0.3-0.4-0.1-0.8,0.1-1.2c0.2-0.3,0.4-0.6,0.6-0.9c0.4-0.6,1.3-0.9,1.8-0.6c0.7,0.3,1.3-0.2,1.9-0.5
				c0-0.4,0.6-0.2,0.7-0.7c0.1-0.2,0.6-0.5,1-0.8c0.3-0.2,0.5-0.5,0.6-0.8c0.3-1,1.4-1.1,2.1-1.7c0.7,0.1,0.6-0.4,0.7-0.8
				c0.2-0.8,0.8-1.3,1.6-1.5c0.5,0.6,1.2-0.8,1.8-0.4c0.1-0.1,0.2-0.3,0.2-0.4c-0.1-0.2-0.2-0.4-0.3-0.6c0.5-0.1,0.4-0.2,0.2-0.4
				c-0.1-0.1,0.4-1.7,0.6-1.7c0.5,0,0,0.6,0.3,0.8c0.1,0.1,0.2,0.1,0.3,0.2c0.4,0.4,0.9,0.6,1.1,1.2c0,0.2,0.3,0.4,0.6,0
				c0.6-0.7,1.1,0,1.8-0.6c0.1-0.1,0.3,0,0.5,0c0.1,0,0.1,0.1,0.2,0.2c0.2,0.1,0.3,0.4,0.5,0.4c0.5-0.2,0.6,0.3,1,0.4
				c0.6-0.5,1.1-0.8,1.5-0.3l0.1,0.1c0.1,0,0.3,0,0.3,0c0.1-0.2,0.2-0.5,0.2-0.6c-0.1-0.2-0.3-0.4-0.3-0.6c-0.2-0.6-1.2-0.8-0.3-2
				c0.1-0.1,0-0.3-0.1-0.3c-0.2-0.1-0.4-0.2-0.8-0.5c0,0,0.1,0,0.1,0.1c0,0,0,0.1,0,0.2c-0.1,0-0.2,0.1-0.2,0.1
				c-0.2-0.1-0.4-0.2-0.6-0.4c-0.1-0.1-0.1-0.2-0.2-0.3c0.1,0,0.3,0,0.4,0s0.1,0.1,0.4,0.3c-0.1,0-0.1,0,0,0c0.7-0.6,1.2-1,1.8-1.3
				c0.6-0.3,0.8,0.1,1.1,0.2c0,0,0.1,0,0.1,0.1C93.3,64.1,93.5,63.1,93.8,63.1L93.8,63.1z M34.6,50.2C34.7,50.2,34.7,50.2,34.6,50.2
				L34.6,50.2z M48.1,44.4c0.1,0,0.2,0.1,0.2,0.1c-0.1,0-0.1,0-0.3,0.1c0,0,0-0.1-0.1-0.1C48,44.4,48.1,44.4,48.1,44.4L48.1,44.4z
				 M5.7,59.1c-0.1,0-0.1-0.1-0.2-0.1c0-0.1,0-0.1,0-0.2c0.1,0,0.1,0.1,0.2,0.1C5.7,59,5.7,59.1,5.7,59.1L5.7,59.1z M25.5,55.1
				c0.1,0,0.2-0.1,0.3-0.1l0.1,0.1c0,0.1,0,0.3-0.1,0.4c-0.1,0.3-0.1,0.5,0.2,0.6c0.1,0,0.1,0.3,0.1,0.4c-0.1,0.1-0.3,0.2-0.4,0.2
				l-0.1-0.1c0-0.1,0-0.2,0.1-0.2C25.1,56,25.6,55.5,25.5,55.1L25.5,55.1z M15.7,53.5l0.2,0.1c0,0,0,0.1-0.1,0.1s-0.1,0-0.2-0.1
				C15.6,53.6,15.7,53.5,15.7,53.5L15.7,53.5z M26.3,76.5c0,0.1-0.1,0.1-0.2,0.1s-0.2-0.1-0.3-0.2c-0.3-0.7-0.9-1.3-1.2-1.9
				c-0.2-0.5-0.6-0.4-0.8-0.7c-0.2-0.3-0.4-0.6-0.5-0.9c-0.2-0.5-0.4-0.7-0.9-0.8c0,0,0-0.2-0.1-0.4c-0.5-0.9-1.1-1.6-1.6-2.5
				c-0.2-0.4-0.6-0.9-1.2-1.3s-1.1-1.1-1.1-2.1c0-0.5-0.4-1.2-0.6-1.7c-0.2-0.7-0.8-1.3-0.8-1.9c0-0.6-0.5-0.6-0.5-1
				c-0.1-0.3-0.1-0.7-0.2-1c0-0.1-0.3-0.3-0.3-0.3c0.1-0.3,0-0.6-0.2-1c-0.1-0.3-0.3-0.7-0.2-1c0.1-0.4-0.1-0.7-0.4-1
				c-0.3-0.4-0.1-1.2,0.2-1.1c0.7,0.4,0.5-0.2,0.5-0.7c0-0.2-0.1-0.5-0.1-0.7c0-0.1,0.1-0.1,0.1-0.2l0.1,0.1c0,0.3,0.1,0.6,0.2,0.9
				c0.2,0.6,0.4,1.2-0.2,1.5c-0.1,0,0,0.4,0,0.5c0.1,0,0.3,0,0.4-0.1c0.1,0,0.1-0.1,0.2-0.2c0,0.1,0.1,0.2,0.1,0.3
				c0,0.3,0,0.7,0.1,0.9c0.1,0.3-0.3,0.6,0.2,0.8c0.2,0.1-0.1,0.6,0.3,0.7c0,0.3,0.1,0.7,0.1,0.8c-0.2,0.6,0,1.1,0.3,1.7
				c0.3,0.5,0.5,0.9,0.6,1.5c0.1,0.4,0.5,0.8,0.6,1.3s0.8,1.1,0.8,1.5c0.1,0.7,0.4,0.9,0.9,1.1c0,0.7,0.9,0.8,1,1.3
				c0,0.6,1,0.9,0.8,1.6c-0.1,0.4,0.5,0.2,0.6,0.5c0.5,1.3,1.5,2.3,2.6,3.3c0.3,0.2,0.5,0.5,0.7,0.8C26.5,75.7,26.4,76.1,26.3,76.5
				L26.3,76.5z M26.6,58.1c-0.3-0.1-0.6-0.2-0.8-0.4c-0.1-0.1,0.1-0.5,0.2-0.7c0.2,0,0.4,0,0.5,0.1C26.7,57.3,26.8,58.1,26.6,58.1
				L26.6,58.1z M38.3,85.5c-0.1,0-0.2,0-0.3,0l-0.1-0.1c-0.2,0.1-0.3,0.1-0.4,0.1l-0.2-0.3c-0.2-0.1-0.4-0.2-0.6-0.2
				c-0.2,0-0.4,0-0.7,0.2c0.1,0,0.3-0.1,0.5-0.2l-0.1-0.1c-0.8,0.1-0.9,0-0.9-0.1c-0.2-0.4-1-0.5-1.1-0.8c-0.3-0.5-0.7-0.3-1.1-0.5
				c-0.8-0.6-1.7-1.1-2.5-1.8c-0.1-0.1-0.1-0.3-0.1-0.4c0-0.2,0-0.3,0.1-0.5c0-0.1,0.1-0.3,0.1-0.4c0.2,0.1,0.4,0.2,0.5,0.3
				c0.6,0.7,1.5,1.2,2.2,1.7c1,0.6,2,1.1,2.5,2.1c0,0.1,0.2,0.2,0.3,0.2s0.1,0,0.2,0c0,0,0.1,0,0.1,0.1c0.2-0.1,0.3-0.1,0.4-0.1
				l0.2,0.3l0.6,0.2c0,0,0.1,0,0.2-0.1v0.1c0.1-0.1,0.2-0.1,0.3-0.1C38.3,85.4,38.3,85.5,38.3,85.5L38.3,85.5z M41.4,87.5
				c-0.3-0.5-1.2-0.4-1.5-0.7c-0.3-0.3-0.4-0.3-0.7-0.2c-0.1,0-0.5-0.2-0.5-0.3c0-0.3,0.2-0.3,0.6-0.1c0.2,0.1,0.5,0.2,0.8,0.2
				l0.1-0.1c0.5,0.3,1.1,0.5,1.7,0.8c0.1,0.1,0.2,0.2,0.3,0.2C42,87.4,41.4,87.5,41.4,87.5z M41.1,83.7c-0.1-0.1-0.3-0.2-0.3-0.2
				c0-0.3,0.2-0.5-0.2-0.8c0.3,0,0.6-0.1,0.9-0.1c0.1,0,0.3,0.3,0.4,0.4c0.2,0.3,1,0.4,0.9,0.8C42.3,83.8,41.7,83.8,41.1,83.7z
				 M43.4,87.7L43.4,87.7c0-0.1,0.1-0.1,0.2-0.1l0.1,0.1C43.5,87.6,43.5,87.7,43.4,87.7z M51.8,86.3c0-0.1-0.1-0.1-0.2-0.3
				c0,0,0.2-0.1,0.3-0.1c0,0.1,0.1,0.1,0.1,0.2C52,86.2,51.9,86.3,51.8,86.3L51.8,86.3z M53.5,87.9c0,0,0.1,0.1,0.2,0.1
				C53.7,88,53.7,88,53.5,87.9c0,0.1-0.2,0.1-0.6,0.2c0.1-0.1,0.2-0.1,0.2-0.2c-0.3,0-0.4-0.1-0.4-0.1c0.1-0.1,0.3-0.2,0.5-0.2
				l0.2,0.1c-0.1,0.1-0.2,0.2-0.3,0.2C53.2,87.9,53.4,87.9,53.5,87.9L53.5,87.9l0.1-0.2l0.2,0.1C53.7,87.9,53.6,87.9,53.5,87.9
				L53.5,87.9z M57.9,85.7l-0.2-0.1l0.1-0.1c0.1,0,0.2,0,0.2,0C57.9,85.6,57.9,85.6,57.9,85.7z M65.4,91.3c0.1-0.1,0.4-0.1,0.4-0.1
				c1-0.3,1.6-0.3,2.3-0.1c0.5,0.2,0.1,0.5-0.1,0.6c-1,0.5-2,0.7-2.9,0.5C65,92.2,64.9,92,65,92C65.1,91.7,65.2,91.4,65.4,91.3
				L65.4,91.3z M59.7,77C59.7,77,59.6,77,59.7,77c0-0.1,0-0.2,0.1-0.2c0,0,0.1,0,0.1,0.1L59.7,77L59.7,77z M83.7,66
				c-0.1-0.1-0.2-0.2-0.2-0.2l0.1-0.2c0.1,0.1,0.2,0.1,0.2,0.2C83.8,65.8,83.8,65.9,83.7,66L83.7,66z"/>
			<path class="st0" d="M42.8,43.7L42.8,43.7c0.1,0,0.2,0,0.3-0.1C43,43.7,42.9,43.7,42.8,43.7L42.8,43.7z"/>
			<path class="st0" d="M89.8,38.5L89.8,38.5C89.9,38.5,89.9,38.5,89.8,38.5C89.9,38.5,89.9,38.5,89.8,38.5L89.8,38.5z"/>
			<path class="st0" d="M43.6,43.5L43.6,43.5L43.6,43.5L43.6,43.5z"/>
			<path class="st0" d="M45.3,42.7C45.3,42.7,45.4,42.6,45.3,42.7C45.4,42.6,45.4,42.7,45.3,42.7L45.3,42.7L45.3,42.7z"/>
			<path class="st0" d="M45.1,42.8L45.1,42.8L45.1,42.8L45.1,42.8L45.1,42.8z"/>
			<path class="st0" d="M45.3,42.7L45.3,42.7L45.3,42.7z"/>
			<path class="st0" d="M45.3,42.7L45.3,42.7L45.3,42.7z"/>
			<path class="st0" d="M45.3,42.7L45.3,42.7z"/>
			<path class="st0" d="M45.3,42.7L45.3,42.7L45.3,42.7L45.3,42.7L45.3,42.7L45.3,42.7z"/>
			<path class="st0" d="M45.4,42.6L45.4,42.6z"/>
			<path class="st0" d="M45.4,42.6L45.4,42.6L45.4,42.6L45.4,42.6z"/>
			<path class="st0" d="M45.3,42.7L45.3,42.7z"/>
			<path class="st0" d="M45.3,42.7L45.3,42.7L45.3,42.7z"/>
			<path class="st0" d="M45.3,42.7L45.3,42.7L45.3,42.7z"/>
			<path class="st0" d="M44.1,43.3L44.1,43.3l-0.2,0.1h-0.1C43.9,43.4,44,43.3,44.1,43.3z"/>
			<path class="st0" d="M44.9,42.9L44.9,42.9L44.9,42.9L44.9,42.9z"/>
			<path class="st0" d="M44.4,43.2L44.4,43.2L44.4,43.2L44.4,43.2L44.4,43.2z"/>
			<path class="st0" d="M44.9,42.9L44.9,42.9L44.9,42.9C45,42.9,44.9,42.9,44.9,42.9L44.9,42.9z"/>
			<path class="st0" d="M44.4,43.2c-0.1,0-0.1,0-0.2,0.1l0,0l0,0C44.2,43.2,44.3,43.2,44.4,43.2L44.4,43.2z"/>
			<path class="st0" d="M43.5,43.5L43.5,43.5z"/>
			<path class="st0" d="M45.1,42.8C45.1,42.8,45,42.9,45.1,42.8L45.1,42.8C45,42.9,45,42.9,45.1,42.8L45.1,42.8z"/>
			<path class="st0" d="M44.9,42.9L44.9,42.9L44.9,42.9L44.9,42.9L44.9,42.9L44.9,42.9z"/>
			<path class="st0" d="M45,42.8C45,42.8,45.1,42.8,45,42.8L45,42.8c0.1-0.1,0.2-0.1,0.2-0.2C45.1,42.8,45,42.8,45,42.8
				C45,42.9,45,42.9,45,42.8L45,42.8z"/>
			<path class="st0" d="M44.9,42.9L44.9,42.9L44.9,42.9z"/>
			<path class="st0" d="M45.1,42.8L45.1,42.8c0.1,0,0.1-0.1,0.2-0.1l0,0C45.3,42.7,45.2,42.8,45.1,42.8L45.1,42.8L45.1,42.8z"/>
			<path class="st0" d="M97.2,65.6c-0.5,0.4-1.1,0.8-1.6,1.4c-0.3,0.3-0.6,0.5-0.9,0.6c-1.3,0.3-1.3,0.3-1.6,1.9
				c0,0.2-0.2,0.3-0.2,0.5c0,0.1,0.1,0.1,0.1,0.2h0.1c0.5-0.7,0.7-0.2,1-0.2c0.6,0.1,1.1,0.1,1.9-0.9c0.5-0.7,0.9-1.5,1.6-2
				c0.5-0.3,0.7-1.1,0.5-1.4C97.9,65.3,97.5,65.3,97.2,65.6L97.2,65.6z"/>
			<path class="st0" d="M96.8,42.8c0-0.8-0.4-0.8-0.8-0.8c-0.3,0-0.7,0.2-0.9-0.3c-0.3,0.6-0.6-0.5-0.8,0c-0.1,0.4-0.1,1-0.1,1.5
				c0,0.1,0.2,0.2,0.2,0.4c0,0.1,0,0.3,0,0.3c-0.4,0.4-0.1,0.8,0.1,0.9c0.3,0.2,0.5,0.9,1.1,0.5c0.7-0.6,1.5-0.9,2.3-0.9
				c0.1,0,0.2-0.1,0.3-0.2c0-0.2,0-0.3,0-0.4c-0.1-0.5-0.4-0.5-0.8-0.6C97.1,43.1,96.8,43.4,96.8,42.8L96.8,42.8z"/>
			<path class="st0" d="M95.5,29.6L95.5,29.6l0.1,0.1C95.6,29.8,95.6,29.7,95.5,29.6C95.6,29.7,95.5,29.6,95.5,29.6z"/>
			<path class="st0" d="M95.5,29.6C95.5,29.6,95.6,29.6,95.5,29.6c0.1-0.1,0.2-0.1,0.2-0.1c0,0.1,0,0.1-0.1,0.2h-0.1
				c0.1,0.4,0.1,0.7,0.2,1c0.2,0.7,0.7,0.5,1,0.8c0.4,0.4,0.4-0.4,0.7-0.3c0-0.1,0.1-0.3,0.1-0.4c-0.2-0.7-0.4-1.3-0.7-2
				c-0.1-0.3-0.2-0.4-0.2-0.7c0.1-0.6-0.2-1-0.6-1c-0.5,0.1-0.9,0.2-1.4,0.3c-0.1,0-0.2,0.2-0.2,0.3C94.9,28.5,94.7,29.5,95.5,29.6
				L95.5,29.6z"/>
			<path class="st0" d="M88.6,72.4c-0.1-0.5-0.4-0.9-0.6-1.3c0-0.1-0.2-0.1-0.2,0c-0.2,0.2-0.5,0.3-0.7,0.5s-0.3,0.6-0.3,0.8
				c0,0.4,0.1,0.9,0.3,1.2c0.1,0.3,0,0.4-0.2,0.7c-0.1,0.1-0.2,0.3-0.2,0.4c0.1,0.6,0.3,1.1,0.4,1.6c0.2,0.1,0.3,0.1,0.4,0.1
				c0.1-0.2,0.2-0.4,0.2-0.6c0-0.9,0.2-1.4,1-2.1c0.1-0.1,0.2-0.5,0.2-0.5C88.6,73,88.7,72.7,88.6,72.4L88.6,72.4z"/>
			<path class="st0" d="M97.1,36.9c0.1-0.1,0.2-0.2,0.2-0.4c0-0.1,0-0.2,0-0.4c-0.1-0.5-0.7,0-0.6-0.8c0-0.4-0.4-0.8-0.5-1.2
				c-0.1-0.3,0-0.7-0.4-0.6c-0.3,0.1-0.6-0.1-0.7,0.4s-0.2,1-0.3,1.3c0,1.1,0.2,1.3,0.8,1.4C96.1,36.7,96.6,36.3,97.1,36.9z"/>
			<path class="st0" d="M41.2,54.1c0,0,0.1,0.2,0.2,0.2c0.3,0.2,0.5,0.4,0.8,0.6c0.2,0.1,0.3,0.1,0.5,0.2c0,0,0-0.1,0-0.2
				c0-0.1-0.1-0.3-0.2-0.4c-0.1-0.5-0.2-0.6-0.4-0.7c-0.2,0-0.4,0-0.7,0v0.1c-0.1,0-0.1,0-0.2,0.1C41.2,53.9,41.2,54,41.2,54.1
				L41.2,54.1z"/>
			<path class="st0" d="M42.7,70.2c0.2,0.3,0.4,0.5,0.6,0.7c0.2,0.2,0.3,0.4,0.4,0.5c0.3,0.1,0.4,0.2,0.5,0.2s0.2-0.1,0.2-0.2v-0.2
				c-0.1-0.2-0.3-0.3-0.4-0.5c-0.3-0.5-0.6-0.9-1.1-1.3c-0.2-0.2-0.3,0-0.4,0c-0.1,0-0.2,0.3-0.1,0.4C42.4,70,42.6,70.1,42.7,70.2
				L42.7,70.2z"/>
			<path class="st0" d="M39.7,65.3c0,0-0.2-0.1-0.3,0s-0.3,0.3-0.2,0.5c0,0.4,0,0.9,0.4,1.3l0.2,0.2c0.2-0.3,0.4-0.6,0.4-1
				C40.3,65.8,40.2,65.6,39.7,65.3L39.7,65.3z"/>
			<path class="st0" d="M86.5,76.1c-0.2-0.2-0.3-0.3-0.5-0.5c-0.1,0-0.2,0-0.2,0c0,0.1-0.1,0.2-0.1,0.3c0.2,0.5-0.2,1.6,0.9,1.4
				c0.2-0.1,0.2,0.6,0.6,0.2c0.1-0.1,0.1-0.5-0.1-0.7C87,76.5,86.7,76.3,86.5,76.1L86.5,76.1z"/>
			<path class="st0" d="M54.1,74.1c0,0-0.3,0.1-0.4,0.2c-0.1,0.1-0.2,0.3-0.1,0.4c0.1,0.2,0.3,0.3,0.4,0.4c0.5-0.2,0.8-0.4,1.2-0.6
				v-0.2C54.9,73.7,54.4,74.5,54.1,74.1L54.1,74.1z"/>
			<path class="st0" d="M82,76.6c-0.1,0.2-0.3,0.4-0.3,0.5c0,0.4,0,0.8,0,1.2c0,0.2,0,0.3,0,0.5c0.2,0,0.3-0.1,0.3-0.1
				c0.2-0.5,0.1-1,0.5-1.6c0.1-0.1,0.1-0.3,0-0.4C82.3,76.7,82.1,76.6,82,76.6L82,76.6z"/>
			<path class="st0" d="M57.9,75.8c-0.1,0.2-0.1,0.3-0.2,0.4c0.1,0.2,0,0.6,0.4,0.5c0.2,0,0.3-0.1,0.5-0.1c-0.1-0.2-0.1-0.5-0.2-0.6
				C58.3,75.9,58.1,75.9,57.9,75.8L57.9,75.8z"/>
			<path class="st0" d="M85.5,54.3c0.3,0.1,0.3,0.2,0.4,0.2s0.2,0,0.3,0c0-0.1,0-0.3-0.1-0.4c-0.2-0.2-0.5-0.3-0.7-0.5
				c-0.1-0.1-0.1-0.4-0.3-0.2c-0.1,0.1-0.1,0.4,0,0.5C85.2,54.1,85.4,54.3,85.5,54.3L85.5,54.3z"/>
			<path class="st0" d="M60.7,85.8c-0.1,0.2-0.1,0.4-0.1,0.6c0.1,0.1,0.1,0.2,0.2,0.3c0.2-0.1,0.3-0.2,0.5-0.3
				c0.2-0.1,0.4-0.3,0.4-0.4c0-0.2-0.3-0.3-0.5-0.4C61.1,85.5,60.8,85.6,60.7,85.8L60.7,85.8z"/>
			<path class="st0" d="M55.8,73.8l0.7,0.5c0.1-0.2,0.3-0.4,0.3-0.5c-0.1-0.2-0.3-0.4-0.6-0.6C56,73.5,55.9,73.6,55.8,73.8z"/>
			<path class="st0" d="M46.4,41L46.4,41L46.4,41z"/>
			<path class="st0" d="M74.9,78.6l-0.2-0.2c-0.1,0.1-0.2,0.2-0.2,0.3c-0.1,0.1-0.1,0.3-0.2,0.4c-0.2,0.5,0.1,0.2,0.3,0.1
				C75.2,79,75.2,79,74.9,78.6C75,78.7,74.9,78.6,74.9,78.6z"/>
			<path class="st0" d="M72.1,10.9c-0.1,0-0.2,0-0.2,0.1c-0.1,0.1-0.1,0.2-0.1,0.3c0.1,0,0.2-0.1,0.3-0.1
				C72.1,11.1,72.1,11,72.1,10.9z"/>
			<path class="st0" d="M72.5,11c0.1-0.1,0.1-0.2,0.2-0.4c-0.2,0.1-0.3,0.1-0.3,0.2c-0.1,0.1-0.1,0.1-0.1,0.2
				C72.2,11,72.4,11.1,72.5,11L72.5,11z"/>
			<path class="st0" d="M78.3,76.7c0.1,0.1,0.2,0.1,0.3,0.2c0.1-0.1,0.2-0.2,0.1-0.3c-0.1-0.1-0.2-0.1-0.3-0.2
				C78.3,76.6,78.2,76.7,78.3,76.7z"/>
			<path class="st0" d="M79.9,77.7c-0.4,0.4-0.1,0.4,0,0.6C80.4,77.9,80,77.9,79.9,77.7z"/>
			<path class="st0" d="M85.1,75.2C85,75.3,85,75.5,85,75.6c0.1-0.1,0.2-0.1,0.4-0.2c0,0,0-0.1-0.1-0.2
				C85.3,75.1,85.1,75.2,85.1,75.2z"/>
			<path class="st0" d="M89.8,17.8c-0.3,0.2,0,0.5,0.1,0.7C90.2,18.3,89.8,18.1,89.8,17.8z"/>
			<path class="st0" d="M92.9,13.8c-0.1-0.1-0.2-0.2-0.2-0.2c-0.1,0.1-0.1,0.2-0.2,0.3c0.1,0.1,0.2,0.2,0.2,0.1
				C92.7,14,92.8,13.9,92.9,13.8L92.9,13.8z"/>
			<path class="st0" d="M53.1,74.8c0.1-0.1,0.2-0.1,0.2-0.1c0-0.1-0.1-0.2-0.1-0.3L53,74.5C53.1,74.6,53.1,74.7,53.1,74.8L53.1,74.8
				z"/>
			<path class="st0" d="M50.5,73.8c0.1,0,0.2,0,0.2,0c0-0.1,0-0.2,0-0.3h-0.2C50.6,73.6,50.6,73.7,50.5,73.8L50.5,73.8z"/>
			<path class="st0" d="M47,72.4c0.1-0.1,0.2-0.1,0.2-0.2s0-0.1,0-0.2c-0.1,0-0.2,0-0.2,0.1C47,72.3,47,72.4,47,72.4z"/>
			<path class="st0" d="M71.5,11c0,0-0.1-0.1-0.1-0.2c-0.1,0.1-0.2,0.2-0.2,0.3c0,0,0.1,0.1,0.1,0.2C71.4,11.1,71.4,11.1,71.5,11
				L71.5,11z"/>
			<path class="st0" d="M82.7,13.9l0.2,0.1l0.1-0.1c-0.1-0.1-0.1-0.1-0.2-0.1C82.7,13.8,82.7,13.8,82.7,13.9L82.7,13.9z"/>
			<path class="st0" d="M79.9,77.4l-0.1,0.2l0.1,0.1c0.1-0.1,0.1-0.2,0.2-0.2C80.1,77.4,80,77.4,79.9,77.4z"/>
			<path class="st0" d="M89.3,69.3L89.3,69.3l0.1-0.2L89.3,69.3C89.3,69.2,89.3,69.2,89.3,69.3L89.3,69.3z"/>
			<path class="st0" d="M34.7,56.2L34.7,56.2c0.1,0,0.2-0.1,0.2-0.1h-0.1C34.7,56,34.7,56.2,34.7,56.2z"/>
			<path class="st0" d="M89.9,18.9l0.1-0.2l-0.1-0.1c0,0.1-0.1,0.1-0.1,0.2C89.7,18.8,89.8,18.8,89.9,18.9L89.9,18.9z"/>
			<path class="st0" d="M89.8,17.5L89.8,17.5l-0.1,0.2l0.2,0.1C89.8,17.7,89.8,17.6,89.8,17.5L89.8,17.5z"/>
			<path class="st0" d="M97.7,31.6c0,0,0-0.1,0.1-0.1l-0.1-0.2l-0.1,0.2C97.6,31.5,97.6,31.5,97.7,31.6L97.7,31.6z"/>
			<path class="st0" d="M62.6,58.9c0-0.1,0.1-0.2,0.1-0.3c0,0-0.1,0.1-0.2,0.1c-0.1,0.1-0.1,0.2-0.1,0.3
				C62.4,58.9,62.5,58.9,62.6,58.9L62.6,58.9z"/>
		</g>
	</g>
</g>
</svg>
