<?xml version="1.0" encoding="utf-8"?>
<!-- Generator: Adobe Illustrator 26.2.1, SVG Export Plug-In . SVG Version: 6.00 Build 0)  -->
<svg version="1.1" id="Layer_1" xmlns="http://www.w3.org/2000/svg" xmlns:xlink="http://www.w3.org/1999/xlink" x="0px" y="0px"
	 viewBox="0 0 24 24" style="enable-background:new 0 0 24 24;" xml:space="preserve">
<style type="text/css">
	.st0{fill:#494949;}
</style>
<path class="st0" d="M11,8h2v6h-2V8 M15,1H9v2h6V1 M12,20c-3.9,0-7-3.1-7-7s3.1-7,7-7s7,3.1,7,7c0.7,0,1.4,0.1,2,0.4
	c0-0.1,0-0.2,0-0.4c0-2.1-0.7-4.1-2-5.6L20.5,6C20,5.5,19.5,5,19,4.6L17.6,6c-1.6-1.3-3.5-2-5.6-2c-5,0-9,4-9,9s4,9,9,9
	c0.6,0,1.2-0.1,1.7-0.2c-0.3-0.6-0.5-1.2-0.6-1.9C12.7,20,12.4,20,12,20 M20,18v-3h-2v3h-3v2h3v3h2v-3h3v-2H20z"/>
</svg>
