<?xml version="1.0" encoding="utf-8"?>
<!-- Generator: Adobe Illustrator 26.2.1, SVG Export Plug-In . SVG Version: 6.00 Build 0)  -->
<svg version="1.1" id="Layer_1" xmlns="http://www.w3.org/2000/svg" xmlns:xlink="http://www.w3.org/1999/xlink" x="0px" y="0px"
	 viewBox="0 0 24 24" style="enable-background:new 0 0 24 24;" xml:space="preserve">
<style type="text/css">
	.st0{fill:#494949;}
</style>
<path class="st0" d="M12,5c-1.1,0-2,0.9-2,2s0.9,2,2,2s2-0.9,2-2S13.1,5,12,5 M22,1v5h-2V4H4v2H2V1h2v2h16V1H22 M15,11.3V23h-2v-5
	h-2v5H9V11.3C6.9,10.2,5.5,8,5.5,5.5V5h2v0.5C7.5,8,9.5,10,12,10s4.5-2,4.5-4.5V5h2v0.5C18.5,8,17.1,10.2,15,11.3z"/>
</svg>
