<?xml version="1.0" encoding="utf-8"?>
<!-- Generator: Adobe Illustrator 26.2.1, SVG Export Plug-In . SVG Version: 6.00 Build 0)  -->
<svg version="1.1" id="Layer_1" xmlns="http://www.w3.org/2000/svg" xmlns:xlink="http://www.w3.org/1999/xlink" x="0px" y="0px"
	 viewBox="0 0 24 24" style="enable-background:new 0 0 24 24;" xml:space="preserve">
<style type="text/css">
	.st0{display:none;fill:#0E0E0E;}
	.st1{fill-rule:evenodd;clip-rule:evenodd;fill:#FCC04F;}
</style>
<path class="st0" d="M22.5,6c-0.8,0.3-1.6,0.6-2.5,0.7c0.9-0.5,1.6-1.4,1.9-2.4c-0.8,0.5-1.8,0.8-2.7,1.1C18.4,4.5,17.3,4,16,4
	c-2.4,0-4.3,1.9-4.3,4.3c0,0.3,0,0.7,0.1,1C8.3,9.1,5.1,7.4,3,4.8C2.6,5.4,2.4,6.2,2.4,6.9c0,1.5,0.8,2.8,1.9,3.6
	c-0.7,0-1.4-0.2-1.9-0.5l0,0c0,2.1,1.5,3.8,3.4,4.2c-0.4,0.1-0.7,0.2-1.1,0.2c-0.3,0-0.5,0-0.8-0.1c0.5,1.7,2.1,2.9,4,3
	c-1.5,1.2-3.3,1.8-5.3,1.8c-0.3,0-0.7,0-1-0.1c1.8,1.3,4.1,2,6.5,2c7.9,0,12.2-6.5,12.2-12.2c0-0.2,0-0.4,0-0.6
	C21.2,7.6,21.9,6.9,22.5,6z"/>
<g id="Layer_2_00000166637090787259569590000003762658788459698836_">
	<path class="st1" d="M4.1,4c0.1,0,1.3,1.9,2.8,4s2.8,4.1,3,4.4c0.2,0.3,0.3,0.5,0.3,0.5S10.1,13,10,13.1c-0.1,0.1-0.3,0.4-0.5,0.6
		c-0.2,0.3-0.5,0.7-0.8,1c-0.2,0.3-0.6,0.7-0.9,1c-0.3,0.3-0.7,0.8-1,1.2C5.9,18,5.7,18.2,5,19c-0.4,0.5-0.8,0.9-0.8,1
		C4.1,20.1,4,20.1,4,20.2c0,0,0.2,0,0.7,0h0.7l0.8-0.9c0.4-0.5,0.8-1,0.9-1.1c0.2-0.2,1.6-1.9,1.7-2c0-0.1,0.1-0.1,0.1-0.2
		c0,0,0.3-0.4,0.6-0.7c0.3-0.4,0.6-0.7,0.6-0.7s0.2-0.2,0.4-0.4s0.3-0.4,0.4-0.4c0,0,1,1.4,2.1,3.1c1.2,1.7,2.2,3.1,2.2,3.2v0.1h2.4
		c2,0,2.4,0,2.4,0s-1.1-1.7-4.1-5.9c-2.1-3.1-2.4-3.5-2.4-3.5s0.3-0.4,2.2-2.5c0.3-0.4,0.8-0.9,1-1.2c0.2-0.3,0.4-0.5,0.5-0.6
		s0.3-0.4,0.6-0.7c0.3-0.3,0.8-0.9,1.1-1.2c0.3-0.4,0.6-0.7,0.6-0.7s0,0-0.7,0h-0.7l-0.3,0.4c-0.4,0.5-1.2,1.4-1.4,1.6
		c-0.1,0.1-0.2,0.2-0.3,0.3c0,0.1-0.1,0.2-0.2,0.3c-0.1,0.1-0.4,0.5-0.8,0.9C14.7,7.7,14.4,8,14.4,8s-0.1,0.1-0.2,0.2
		c-0.2,0.2-0.3,0.4-1,1.2c-0.3,0.4-0.3,0.4-0.4,0.3c0,0-0.9-1.4-2.1-3l-2-3H6.3L4,3.8L4.1,4 M6,4.9c0,0,0.5,0.7,1,1.4
		c1,1.4,4.9,7,7.4,10.6c0.8,1.2,1.5,2.1,1.5,2.1s0.3,0,1.1,0h1.1l-2.8-4c-1.5-2.2-3.8-5.4-5-7.1l-2.2-3H7H6L6,4.9"/>
</g>
</svg>
